<svg width="16" height="16" viewBox="0 0 16 16" fill="none" xmlns="http://www.w3.org/2000/svg">
<path fill-rule="evenodd" clip-rule="evenodd" d="M13.7071 3.70711C14.0976 3.31658 14.0976 2.68342 13.7071 2.29289C13.3166 1.90237 12.6834 1.90237 12.2929 2.29289L2.29289 12.2929C1.90237 12.6834 1.90237 13.3166 2.29289 13.7071C2.68342 14.0976 3.31658 14.0976 3.70711 13.7071L4.25815 13.1561C5.33075 13.6677 6.58799 14 8 14C10.4387 14 12.4157 13.0089 13.7772 11.8141C14.4569 11.2177 14.997 10.559 15.3733 9.92362C15.735 9.3129 16 8.63067 16 8C16 7.36933 15.735 6.6871 15.3733 6.07637C14.997 5.44096 14.4569 4.7823 13.7772 4.18587C13.6808 4.10127 13.5813 4.01769 13.4788 3.93541L13.7071 3.70711ZM12.0537 5.36048L5.78764 11.6266C6.4543 11.86 7.19468 12 8 12C9.87499 12 11.398 11.2411 12.4581 10.3109C12.9892 9.8448 13.3903 9.34721 13.6524 8.9045C13.9292 8.4371 14 8.11933 14 8C14 7.88067 13.9292 7.5629 13.6524 7.0955C13.3903 6.65279 12.9892 6.1552 12.4581 5.68913C12.33 5.57674 12.1951 5.46684 12.0537 5.36048Z" fill="#7A7A85"/>
<path d="M8 2C8.37892 2 8.74669 2.02393 9.10274 2.06883L7.11393 4.05765C5.64206 4.25127 4.4297 4.9101 3.54194 5.68913C3.01083 6.1552 2.60975 6.65279 2.34757 7.0955C2.07077 7.5629 2 7.88067 2 8C2 8.11495 2.06567 8.41404 2.31792 8.85365L0.868951 10.3026C0.781922 10.1758 0.701109 10.0493 0.626701 9.92362C0.265021 9.3129 0 8.63067 0 8C0 7.36933 0.265021 6.6871 0.626701 6.07637C1.003 5.44096 1.5431 4.7823 2.22278 4.18587C3.58425 2.99113 5.56128 2 8 2Z" fill="#7A7A85"/>
</svg>
