<svg width="16" height="16" viewBox="0 0 16 16" fill="none" xmlns="http://www.w3.org/2000/svg">
<path fill-rule="evenodd" clip-rule="evenodd" d="M8 5C6.34315 5 5 6.34315 5 8C5 9.65685 6.34315 11 8 11C9.65685 11 11 9.65685 11 8C11 6.34315 9.65685 5 8 5ZM7 8C7 7.44772 7.44772 7 8 7C8.55228 7 9 7.44772 9 8C9 8.55228 8.55228 9 8 9C7.44772 9 7 8.55228 7 8Z" fill="#7A7A85"/>
<path fill-rule="evenodd" clip-rule="evenodd" d="M8 2C5.56128 2 3.58425 2.99113 2.22278 4.18587C1.5431 4.7823 1.003 5.44096 0.626701 6.07638C0.265021 6.6871 0 7.36933 0 8C0 8.63067 0.265021 9.3129 0.626701 9.92362C1.003 10.559 1.5431 11.2177 2.22278 11.8141C3.58425 13.0089 5.56128 14 8 14C10.4387 14 12.4157 13.0089 13.7772 11.8141C14.4569 11.2177 14.997 10.559 15.3733 9.92362C15.735 9.3129 16 8.63067 16 8C16 7.36933 15.735 6.6871 15.3733 6.07638C14.997 5.44096 14.4569 4.7823 13.7772 4.18587C12.4157 2.99113 10.4387 2 8 2ZM2 8C2 7.88067 2.07077 7.5629 2.34757 7.0955C2.60975 6.65279 3.01083 6.1552 3.54194 5.68913C4.60204 4.75887 6.12501 4 8 4C9.87499 4 11.398 4.75887 12.4581 5.68913C12.9892 6.1552 13.3903 6.65279 13.6524 7.0955C13.9292 7.5629 14 7.88067 14 8C14 8.11933 13.9292 8.4371 13.6524 8.9045C13.3903 9.34721 12.9892 9.8448 12.4581 10.3109C11.398 11.2411 9.87499 12 8 12C6.12501 12 4.60204 11.2411 3.54194 10.3109C3.01083 9.8448 2.60975 9.34721 2.34757 8.9045C2.07077 8.4371 2 8.11933 2 8Z" fill="#7A7A85"/>
</svg>
