<svg width="16" height="16" viewBox="0 0 16 16" fill="none" xmlns="http://www.w3.org/2000/svg">
<path fill-rule="evenodd" clip-rule="evenodd" d="M8 2.60784C7.16718 1.62029 5.89538 1 4.5 1C1.99782 1 0 3.12381 0 5.5C0 8.32136 2.08528 10.5818 3.8708 12.0272C4.79533 12.7757 5.71448 13.366 6.39983 13.7685C6.83652 14.025 7.47075 14.5 8 14.5C8.52925 14.5 9.16348 14.025 9.60017 13.7685C10.2855 13.366 11.2047 12.7757 12.1292 12.0272C13.9147 10.5818 16 8.32136 16 5.5C16 3.12381 14.0022 1 11.5 1C10.1046 1 8.83282 1.62029 8 2.60784ZM4.5 3C3.13618 3 2 4.19429 2 5.5C2 7.34531 3.41472 9.08484 5.1292 10.4728C5.95467 11.141 6.78552 11.6756 7.41267 12.044C7.64017 12.1776 7.8394 12.2884 8 12.375C8.1606 12.2884 8.35983 12.1776 8.58733 12.044C9.21448 11.6756 10.0453 11.141 10.8708 10.4728C12.5853 9.08484 14 7.34531 14 5.5C14 4.19429 12.8638 3 11.5 3C8.91996 3 8 6.33333 8 6.33333C8 6.33333 7.08004 3 4.5 3Z" fill="#7A7A85"/>
</svg>
