<svg width="16" height="16" viewBox="0 0 16 16" fill="none" xmlns="http://www.w3.org/2000/svg">
<path d="M9.85513 0.875571C9.30305 0.890493 8.86759 1.35014 8.88251 1.90222C8.89743 2.45431 9.35708 2.88976 9.90917 2.87484L11.761 2.82479L7.58579 7C7.19526 7.39052 7.19526 8.02368 7.58579 8.41421C7.97631 8.80473 8.60948 8.80473 9 8.41421L13.1752 4.23901L13.1252 6.09083C13.1102 6.64291 13.5457 7.10256 14.0978 7.11748C14.6499 7.1324 15.1095 6.69695 15.1244 6.14486L15.2423 1.78437C15.2497 1.50988 15.1439 1.24441 14.9497 1.05025C14.7556 0.856082 14.4901 0.750301 14.2156 0.75772L9.85513 0.875571Z" fill="#7A7A85"/>
<path d="M4.46447 4.46446C4.85499 4.07394 4.85499 3.44077 4.46447 3.05025C4.07394 2.65972 3.44078 2.65972 3.05025 3.05025C0.316582 5.78392 0.316583 10.2161 3.05025 12.9497C5.78392 15.6834 10.2161 15.6834 12.9497 12.9497C13.3403 12.5592 13.3403 11.9261 12.9497 11.5355C12.5592 11.145 11.9261 11.145 11.5355 11.5355C9.58291 13.4882 6.41709 13.4882 4.46447 11.5355C2.51184 9.58291 2.51184 6.41708 4.46447 4.46446Z" fill="#7A7A85"/>
</svg>
