<svg width="422" height="330" viewBox="0 0 422 330" fill="none" xmlns="http://www.w3.org/2000/svg">
<g clip-path="url(#clip0_29_1446)">
<path d="M78.1039 171.192C81.8924 173.423 81.9125 177.016 78.1444 179.225L50.1584 195.704C46.3902 197.914 40.2594 197.935 36.4709 195.704L8.30168 179.225C4.51318 177.016 4.49277 173.402 8.26091 171.192L36.2469 154.713C40.015 152.483 46.1458 152.503 49.9343 154.713L78.1039 171.192Z" fill="#60B2FE"/>
<path d="M352.438 197.068C352.438 197.436 352.406 197.793 352.385 198.16C352.364 198.476 352.353 198.78 352.322 199.095C352.29 199.368 352.259 199.641 352.217 199.914C352.175 200.219 352.133 200.534 352.07 200.838C352.017 201.111 351.965 201.384 351.902 201.657C351.839 201.962 351.765 202.256 351.681 202.56C351.608 202.833 351.524 203.106 351.44 203.379C351.345 203.673 351.251 203.978 351.146 204.272C351.051 204.534 350.947 204.807 350.842 205.07C350.715 205.385 350.589 205.7 350.442 206.004C350.327 206.267 350.201 206.529 350.075 206.792C349.928 207.107 349.76 207.411 349.592 207.716C349.455 207.968 349.319 208.22 349.172 208.472C348.962 208.84 348.731 209.207 348.489 209.564C348.342 209.785 348.206 210.005 348.059 210.226C347.786 210.625 347.492 211.024 347.187 211.423C347.04 211.612 346.914 211.801 346.767 211.99C346.694 212.074 346.631 212.158 346.557 212.242C346.232 212.641 345.896 213.029 345.549 213.428C345.455 213.533 345.36 213.649 345.255 213.754C344.846 214.205 344.415 214.657 343.964 215.098C343.88 215.182 343.796 215.255 343.712 215.339C343.365 215.675 343.008 216.001 342.651 216.326C342.357 216.589 342.063 216.851 341.759 217.103C341.475 217.345 341.191 217.576 340.908 217.817C340.593 218.07 340.267 218.322 339.942 218.574C339.637 218.805 339.333 219.036 339.018 219.267C338.671 219.519 338.325 219.76 337.968 220.002C337.642 220.222 337.317 220.453 336.981 220.674C336.613 220.915 336.235 221.146 335.857 221.388C335.385 221.682 334.912 221.976 334.419 222.27C333.495 222.805 332.539 223.32 331.573 223.813C331.29 223.96 331.006 224.097 330.722 224.233C329.966 224.601 329.2 224.968 328.423 225.315C328.16 225.43 327.908 225.556 327.635 225.672C326.627 226.113 325.598 226.533 324.548 226.932C324.359 227.005 324.17 227.068 323.992 227.131C323.11 227.457 322.207 227.772 321.304 228.077C320.925 228.203 320.558 228.318 320.18 228.444C319.686 228.602 319.182 228.749 318.678 228.906C318.248 229.032 317.817 229.158 317.387 229.274C316.872 229.41 316.368 229.547 315.854 229.683C315.423 229.799 314.982 229.904 314.552 230.009C314.027 230.135 313.502 230.25 312.977 230.376C312.535 230.471 312.105 230.576 311.664 230.66C311.128 230.775 310.582 230.88 310.047 230.975C309.627 231.059 309.217 231.132 308.797 231.206C307.642 231.416 306.466 231.605 305.29 231.762C305.122 231.783 304.954 231.804 304.786 231.825C303.768 231.962 302.739 232.088 301.709 232.193C301.31 232.235 300.922 232.277 300.523 232.308C299.861 232.371 299.2 232.424 298.528 232.476C298.108 232.508 297.688 232.539 297.268 232.56C296.575 232.602 295.882 232.634 295.189 232.665C294.8 232.686 294.401 232.707 294.013 232.718C293.414 232.739 292.805 232.749 292.206 232.749C291.786 232.76 291.356 232.77 290.936 232.77C290.295 232.77 289.644 232.76 289.004 232.749C288.626 232.739 288.237 232.739 287.859 232.728C287.271 232.718 286.683 232.686 286.095 232.655C285.675 232.634 285.266 232.623 284.846 232.602C284.216 232.571 283.586 232.518 282.956 232.476C282.588 232.445 282.21 232.434 281.842 232.403C281.086 232.34 280.341 232.266 279.595 232.182C279.354 232.161 279.102 232.14 278.86 232.109C277.873 231.993 276.886 231.878 275.899 231.731C275.752 231.71 275.616 231.689 275.469 231.668C274.608 231.542 273.757 231.405 272.907 231.258C272.56 231.195 272.203 231.122 271.857 231.059C271.216 230.943 270.575 230.828 269.945 230.691C269.609 230.618 269.284 230.544 268.948 230.471C268.255 230.324 267.551 230.166 266.869 229.998C266.48 229.904 266.102 229.809 265.724 229.715C265.094 229.557 264.464 229.389 263.845 229.221C263.488 229.127 263.141 229.022 262.784 228.917C261.797 228.633 260.82 228.329 259.854 228.003C259.686 227.95 259.508 227.898 259.34 227.835C258.227 227.457 257.135 227.058 256.064 226.638C255.623 226.47 255.192 226.291 254.762 226.113C254.415 225.976 254.069 225.829 253.733 225.682C253.25 225.472 252.767 225.252 252.294 225.042C251.979 224.895 251.664 224.758 251.359 224.611C250.834 224.359 250.32 224.107 249.816 223.845C249.564 223.719 249.301 223.593 249.06 223.467C248.304 223.068 247.558 222.658 246.823 222.238C239.956 218.269 235.021 213.607 232.017 208.64C229.686 204.776 228.521 200.733 228.531 196.69L227.901 221.829C227.88 231.069 233.971 240.331 246.183 247.376C246.918 247.796 247.663 248.206 248.419 248.605C248.671 248.731 248.923 248.857 249.175 248.983C249.69 249.246 250.204 249.498 250.719 249.75C251.023 249.897 251.349 250.033 251.653 250.18C252.136 250.401 252.609 250.621 253.092 250.821C253.428 250.968 253.775 251.104 254.121 251.251C254.447 251.388 254.772 251.524 255.108 251.661C255.213 251.703 255.318 251.734 255.423 251.776C256.505 252.196 257.586 252.595 258.699 252.973C258.867 253.036 259.046 253.078 259.214 253.141C260.18 253.456 261.156 253.761 262.144 254.055C262.312 254.107 262.469 254.16 262.637 254.202C262.826 254.254 263.015 254.296 263.204 254.349C263.823 254.517 264.454 254.685 265.084 254.842C265.462 254.937 265.85 255.042 266.228 255.136C266.921 255.304 267.614 255.451 268.307 255.609C268.57 255.661 268.822 255.735 269.095 255.787C269.168 255.798 269.242 255.808 269.305 255.829C269.945 255.955 270.586 256.081 271.226 256.197C271.573 256.26 271.919 256.333 272.266 256.386C273.116 256.533 273.988 256.669 274.849 256.795C274.986 256.816 275.112 256.837 275.248 256.858C275.259 256.858 275.259 256.858 275.269 256.858C276.256 256.995 277.243 257.121 278.23 257.236C278.472 257.268 278.724 257.278 278.965 257.31C279.711 257.383 280.456 257.468 281.212 257.531C281.233 257.531 281.254 257.531 281.275 257.541C281.622 257.573 281.979 257.583 282.336 257.614C282.966 257.656 283.596 257.709 284.226 257.74C284.646 257.761 285.056 257.772 285.476 257.793C286.064 257.814 286.652 257.846 287.24 257.867C287.292 257.867 287.334 257.866 287.387 257.877C287.723 257.887 288.059 257.877 288.384 257.888C289.025 257.898 289.676 257.909 290.316 257.909C290.736 257.909 291.167 257.898 291.587 257.888C292.185 257.877 292.794 257.867 293.393 257.856C293.509 257.856 293.614 257.856 293.729 257.846C294.013 257.835 294.286 257.814 294.569 257.804C295.262 257.772 295.955 257.741 296.648 257.699C297.068 257.678 297.488 257.646 297.908 257.614C298.57 257.562 299.242 257.51 299.903 257.447C300.134 257.426 300.365 257.415 300.607 257.384C300.764 257.363 300.932 257.342 301.09 257.331C302.119 257.226 303.148 257.1 304.177 256.963C304.345 256.942 304.513 256.921 304.681 256.9C305.857 256.732 307.023 256.543 308.178 256.344C308.283 256.323 308.398 256.312 308.503 256.291C308.808 256.239 309.112 256.165 309.427 256.113C309.973 256.008 310.509 255.903 311.044 255.798C311.485 255.703 311.916 255.609 312.357 255.514C312.882 255.399 313.407 255.273 313.932 255.147C314.373 255.042 314.804 254.926 315.234 254.821C315.749 254.685 316.263 254.548 316.778 254.412C317.208 254.296 317.639 254.17 318.059 254.044C318.563 253.897 319.067 253.74 319.571 253.582C319.791 253.509 320.012 253.456 320.232 253.383C320.39 253.33 320.537 253.267 320.694 253.225C321.597 252.921 322.501 252.616 323.383 252.28C323.572 252.207 323.761 252.144 323.939 252.081C324.989 251.682 326.018 251.262 327.026 250.821C327.289 250.705 327.551 250.59 327.814 250.464C328.591 250.117 329.357 249.76 330.113 249.382C330.397 249.246 330.68 249.109 330.953 248.962C331.919 248.469 332.875 247.954 333.799 247.419C334.051 247.271 334.303 247.125 334.555 246.967C334.786 246.83 335.007 246.683 335.238 246.536C335.616 246.295 335.994 246.064 336.361 245.822C336.697 245.602 337.023 245.381 337.348 245.15C337.705 244.909 338.052 244.657 338.398 244.415C338.713 244.184 339.018 243.953 339.322 243.722C339.648 243.47 339.973 243.218 340.288 242.966C340.582 242.735 340.866 242.494 341.139 242.252C341.444 241.99 341.738 241.738 342.032 241.475C342.147 241.37 342.284 241.265 342.399 241.15C342.641 240.929 342.861 240.709 343.092 240.488C343.176 240.404 343.26 240.331 343.344 240.247C343.796 239.806 344.226 239.354 344.636 238.903C344.73 238.798 344.825 238.693 344.919 238.588C348.93 234.091 351.807 228.367 351.807 222.238L352.438 197.068Z" fill="#3072BE"/>
<path d="M334.145 171.521C358.423 185.539 358.549 208.262 334.429 222.27C310.32 236.278 271.09 236.278 246.812 222.27C222.546 208.262 222.42 185.539 246.529 171.521C270.649 157.503 309.879 157.503 334.145 171.521Z" fill="#E9F4FB"/>
<path d="M352.438 164.517C352.438 164.885 352.406 165.242 352.385 165.609C352.364 165.924 352.353 166.229 352.322 166.544C352.29 166.817 352.259 167.09 352.217 167.363C352.175 167.667 352.133 167.982 352.07 168.287C352.017 168.56 351.965 168.833 351.902 169.106C351.839 169.41 351.765 169.704 351.681 170.009C351.608 170.282 351.524 170.555 351.44 170.828C351.345 171.122 351.251 171.426 351.146 171.72C351.051 171.983 350.947 172.256 350.842 172.519C350.715 172.834 350.589 173.149 350.442 173.453C350.327 173.716 350.201 173.978 350.075 174.241C349.928 174.556 349.76 174.86 349.592 175.165C349.455 175.417 349.319 175.669 349.172 175.921C348.962 176.288 348.731 176.656 348.489 177.013C348.342 177.233 348.206 177.454 348.059 177.674C347.786 178.073 347.492 178.472 347.187 178.871C347.04 179.06 346.914 179.249 346.767 179.438C346.694 179.522 346.631 179.606 346.557 179.69C346.232 180.089 345.896 180.478 345.549 180.877C345.455 180.982 345.36 181.097 345.255 181.202C344.846 181.654 344.415 182.106 343.964 182.547C343.88 182.631 343.796 182.704 343.712 182.788C343.365 183.124 343.008 183.45 342.651 183.775C342.357 184.038 342.063 184.3 341.759 184.552C341.475 184.794 341.191 185.025 340.908 185.266C340.593 185.518 340.267 185.77 339.942 186.022C339.637 186.253 339.333 186.484 339.018 186.715C338.671 186.967 338.325 187.209 337.968 187.45C337.642 187.671 337.317 187.902 336.981 188.122C336.613 188.364 336.235 188.595 335.857 188.836C335.385 189.13 334.912 189.424 334.419 189.718C333.495 190.254 332.539 190.768 331.573 191.262C331.29 191.409 331.006 191.546 330.722 191.682C329.966 192.05 329.2 192.417 328.423 192.764C328.16 192.879 327.908 193.005 327.635 193.121C326.627 193.562 325.598 193.982 324.548 194.381C324.359 194.454 324.17 194.517 323.992 194.58C323.11 194.906 322.207 195.221 321.304 195.525C320.925 195.651 320.558 195.767 320.18 195.893C319.686 196.05 319.182 196.197 318.678 196.355C318.248 196.481 317.817 196.607 317.387 196.722C316.872 196.859 316.368 196.995 315.854 197.132C315.423 197.247 314.982 197.352 314.552 197.457C314.027 197.583 313.502 197.699 312.977 197.825C312.535 197.919 312.105 198.024 311.664 198.108C311.128 198.224 310.582 198.329 310.047 198.423C309.627 198.507 309.217 198.581 308.797 198.654C307.642 198.864 306.466 199.053 305.29 199.211C305.122 199.232 304.954 199.253 304.786 199.274C303.768 199.41 302.739 199.536 301.709 199.641C301.31 199.683 300.922 199.725 300.523 199.757C299.861 199.82 299.2 199.872 298.528 199.925C298.108 199.956 297.688 199.988 297.268 200.009C296.575 200.051 295.882 200.082 295.189 200.114C294.8 200.135 294.401 200.156 294.013 200.166C293.414 200.187 292.805 200.198 292.206 200.198C291.786 200.208 291.356 200.219 290.936 200.219C290.295 200.219 289.644 200.208 289.004 200.198C288.626 200.187 288.237 200.187 287.859 200.177C287.271 200.166 286.683 200.135 286.095 200.103C285.675 200.082 285.266 200.072 284.846 200.051C284.216 200.019 283.586 199.967 282.956 199.925C282.588 199.893 282.21 199.883 281.842 199.851C281.086 199.788 280.341 199.715 279.595 199.631C279.354 199.61 279.102 199.589 278.86 199.557C277.873 199.442 276.886 199.326 275.899 199.179C275.752 199.158 275.616 199.137 275.469 199.116C274.608 198.99 273.757 198.854 272.907 198.707C272.56 198.644 272.203 198.57 271.857 198.507C271.216 198.392 270.575 198.276 269.945 198.14C269.609 198.066 269.284 197.993 268.948 197.919C268.255 197.772 267.551 197.615 266.869 197.447C266.48 197.352 266.102 197.258 265.724 197.163C265.094 197.006 264.464 196.838 263.845 196.67C263.488 196.575 263.141 196.47 262.784 196.365C261.797 196.082 260.82 195.777 259.854 195.452C259.686 195.399 259.508 195.347 259.34 195.284C258.227 194.906 257.135 194.507 256.064 194.087C255.623 193.919 255.192 193.74 254.762 193.562C254.415 193.425 254.069 193.278 253.733 193.131C253.25 192.921 252.767 192.701 252.294 192.491C251.979 192.344 251.664 192.207 251.359 192.06C250.834 191.808 250.32 191.556 249.816 191.293C249.564 191.167 249.301 191.041 249.06 190.915C248.304 190.516 247.558 190.107 246.823 189.687C239.956 185.718 235.021 181.055 232.017 176.089C229.686 172.225 228.521 168.182 228.531 164.139L227.901 189.277C227.88 198.518 233.971 207.779 246.183 214.825C246.918 215.245 247.663 215.655 248.419 216.054C248.671 216.18 248.923 216.306 249.175 216.432C249.69 216.694 250.204 216.946 250.719 217.198C251.023 217.345 251.349 217.482 251.653 217.629C252.136 217.849 252.609 218.07 253.092 218.269C253.428 218.416 253.775 218.553 254.121 218.7C254.447 218.836 254.772 218.973 255.108 219.109C255.213 219.151 255.318 219.183 255.423 219.225C256.505 219.645 257.586 220.044 258.699 220.422C258.867 220.485 259.046 220.527 259.214 220.59C260.18 220.905 261.156 221.21 262.144 221.504C262.312 221.556 262.469 221.609 262.637 221.651C262.826 221.703 263.015 221.745 263.204 221.798C263.823 221.966 264.454 222.134 265.084 222.291C265.462 222.386 265.85 222.491 266.228 222.585C266.921 222.753 267.614 222.9 268.307 223.058C268.57 223.11 268.822 223.184 269.095 223.236C269.168 223.247 269.242 223.257 269.305 223.278C269.945 223.404 270.586 223.53 271.226 223.646C271.573 223.709 271.919 223.782 272.266 223.835C273.116 223.982 273.988 224.118 274.849 224.244C274.986 224.265 275.112 224.286 275.248 224.307C275.259 224.307 275.259 224.307 275.269 224.307C276.256 224.444 277.243 224.57 278.23 224.685C278.472 224.717 278.724 224.727 278.965 224.759C279.711 224.832 280.456 224.916 281.212 224.979C281.233 224.979 281.254 224.979 281.275 224.99C281.622 225.021 281.979 225.032 282.336 225.063C282.966 225.105 283.596 225.158 284.226 225.189C284.646 225.21 285.056 225.221 285.476 225.242C286.064 225.263 286.652 225.294 287.24 225.315C287.292 225.315 287.334 225.315 287.387 225.326C287.723 225.336 288.059 225.326 288.384 225.336C289.025 225.347 289.676 225.357 290.316 225.357C290.736 225.357 291.167 225.347 291.587 225.336C292.185 225.326 292.794 225.315 293.393 225.305C293.509 225.305 293.614 225.305 293.729 225.294C294.013 225.284 294.286 225.263 294.569 225.252C295.262 225.221 295.955 225.189 296.648 225.147C297.068 225.126 297.488 225.095 297.908 225.063C298.57 225.011 299.242 224.958 299.903 224.895C300.134 224.874 300.365 224.864 300.607 224.832C300.764 224.811 300.932 224.79 301.09 224.78C302.119 224.675 303.148 224.549 304.177 224.412C304.345 224.391 304.513 224.37 304.681 224.349C305.857 224.181 307.023 223.992 308.178 223.793C308.283 223.772 308.398 223.761 308.503 223.74C308.808 223.688 309.112 223.614 309.427 223.562C309.973 223.457 310.509 223.352 311.044 223.247C311.485 223.152 311.916 223.058 312.357 222.963C312.882 222.848 313.407 222.722 313.932 222.596C314.373 222.491 314.804 222.375 315.234 222.27C315.749 222.134 316.263 221.997 316.778 221.861C317.208 221.745 317.639 221.619 318.059 221.493C318.563 221.346 319.067 221.189 319.571 221.031C319.791 220.958 320.012 220.905 320.232 220.832C320.39 220.779 320.537 220.716 320.694 220.674C321.597 220.369 322.501 220.065 323.383 219.729C323.572 219.655 323.761 219.592 323.939 219.529C324.989 219.13 326.018 218.71 327.026 218.269C327.289 218.154 327.551 218.038 327.814 217.912C328.591 217.566 329.357 217.209 330.113 216.831C330.397 216.694 330.68 216.558 330.953 216.411C331.919 215.917 332.875 215.403 333.799 214.867C334.051 214.72 334.303 214.573 334.555 214.416C334.786 214.279 335.007 214.132 335.238 213.985C335.616 213.744 335.994 213.513 336.361 213.271C336.697 213.051 337.023 212.83 337.348 212.599C337.705 212.358 338.052 212.106 338.398 211.864C338.713 211.633 339.018 211.402 339.322 211.171C339.648 210.919 339.973 210.667 340.288 210.415C340.582 210.184 340.866 209.942 341.139 209.701C341.444 209.438 341.738 209.186 342.032 208.924C342.147 208.819 342.284 208.714 342.399 208.598C342.641 208.378 342.861 208.157 343.092 207.937C343.176 207.853 343.26 207.779 343.344 207.695C343.796 207.254 344.226 206.803 344.636 206.351C344.73 206.246 344.825 206.141 344.919 206.036C348.93 201.54 351.807 195.816 351.807 189.687L352.438 164.517Z" fill="#3072BE"/>
<path d="M334.145 138.969C358.423 152.988 358.549 175.711 334.429 189.719C310.32 203.726 271.09 203.726 246.812 189.719C222.546 175.711 222.42 152.988 246.529 138.969C270.649 124.951 309.879 124.951 334.145 138.969Z" fill="#E9F4FB"/>
<path d="M352.438 131.966C352.438 132.333 352.406 132.69 352.385 133.058C352.364 133.373 352.353 133.677 352.322 133.992C352.29 134.265 352.259 134.538 352.217 134.811C352.175 135.116 352.133 135.431 352.07 135.735C352.017 136.009 351.965 136.282 351.902 136.555C351.839 136.859 351.765 137.153 351.681 137.458C351.608 137.731 351.524 138.004 351.44 138.277C351.345 138.571 351.251 138.875 351.146 139.169C351.051 139.432 350.947 139.705 350.842 139.967C350.715 140.282 350.589 140.597 350.442 140.902C350.327 141.164 350.201 141.427 350.075 141.689C349.928 142.004 349.76 142.309 349.592 142.613C349.455 142.865 349.319 143.117 349.172 143.369C348.962 143.737 348.731 144.104 348.489 144.461C348.342 144.682 348.206 144.902 348.059 145.123C347.786 145.522 347.492 145.921 347.187 146.32C347.04 146.509 346.914 146.698 346.767 146.887C346.694 146.971 346.631 147.055 346.557 147.139C346.232 147.538 345.896 147.927 345.549 148.326C345.455 148.431 345.36 148.546 345.255 148.651C344.846 149.103 344.415 149.554 343.964 149.995C343.88 150.079 343.796 150.153 343.712 150.237C343.365 150.573 343.008 150.898 342.651 151.224C342.357 151.486 342.063 151.749 341.759 152.001C341.475 152.242 341.191 152.473 340.908 152.715C340.593 152.967 340.267 153.219 339.942 153.471C339.637 153.702 339.333 153.933 339.018 154.164C338.671 154.416 338.325 154.657 337.968 154.899C337.642 155.119 337.317 155.351 336.981 155.571C336.613 155.813 336.235 156.044 335.857 156.285C335.385 156.579 334.912 156.873 334.419 157.167C333.495 157.703 332.539 158.217 331.573 158.711C331.29 158.858 331.006 158.994 330.722 159.131C329.966 159.498 329.2 159.866 328.423 160.212C328.16 160.328 327.908 160.454 327.635 160.569C326.627 161.01 325.598 161.43 324.548 161.829C324.359 161.903 324.17 161.966 323.992 162.029C323.11 162.354 322.207 162.669 321.304 162.974C320.925 163.1 320.558 163.215 320.18 163.341C319.686 163.499 319.182 163.646 318.678 163.803C318.248 163.929 317.817 164.055 317.387 164.171C316.872 164.307 316.368 164.444 315.854 164.58C315.423 164.696 314.982 164.801 314.552 164.906C314.027 165.032 313.502 165.147 312.977 165.273C312.535 165.368 312.105 165.473 311.664 165.557C311.128 165.673 310.582 165.778 310.047 165.872C309.627 165.956 309.217 166.03 308.797 166.103C307.642 166.313 306.466 166.502 305.29 166.66C305.122 166.681 304.954 166.702 304.786 166.723C303.768 166.859 302.739 166.985 301.709 167.09C301.31 167.132 300.922 167.174 300.523 167.206C299.861 167.269 299.2 167.321 298.528 167.374C298.108 167.405 297.688 167.437 297.268 167.458C296.575 167.5 295.882 167.531 295.189 167.563C294.8 167.584 294.401 167.605 294.013 167.615C293.414 167.636 292.805 167.647 292.206 167.647C291.786 167.657 291.356 167.668 290.936 167.668C290.295 167.668 289.644 167.657 289.004 167.647C288.626 167.636 288.237 167.636 287.859 167.626C287.271 167.615 286.683 167.584 286.095 167.552C285.675 167.531 285.266 167.521 284.846 167.5C284.216 167.468 283.586 167.416 282.956 167.374C282.588 167.342 282.21 167.332 281.842 167.3C281.086 167.237 280.341 167.164 279.595 167.08C279.354 167.059 279.102 167.038 278.86 167.006C277.873 166.891 276.886 166.775 275.899 166.628C275.752 166.607 275.616 166.586 275.469 166.565C274.608 166.439 273.757 166.303 272.907 166.156C272.56 166.093 272.203 166.019 271.857 165.956C271.216 165.841 270.575 165.725 269.945 165.589C269.609 165.515 269.284 165.442 268.948 165.368C268.255 165.221 267.551 165.063 266.869 164.895C266.48 164.801 266.102 164.706 265.724 164.612C265.094 164.454 264.464 164.286 263.845 164.118C263.488 164.024 263.141 163.919 262.784 163.814C261.797 163.53 260.82 163.226 259.854 162.9C259.686 162.848 259.508 162.795 259.34 162.732C258.227 162.354 257.135 161.955 256.064 161.535C255.623 161.367 255.192 161.189 254.762 161.01C254.415 160.874 254.069 160.727 253.733 160.58C253.25 160.37 252.767 160.149 252.294 159.939C251.979 159.792 251.664 159.656 251.359 159.509C250.834 159.257 250.32 159.005 249.816 158.742C249.564 158.616 249.301 158.49 249.06 158.364C248.304 157.965 247.558 157.556 246.823 157.136C239.956 153.166 235.021 148.504 232.017 143.537C229.686 139.673 228.521 135.63 228.531 131.588L227.901 156.726C227.88 165.967 233.971 175.228 246.183 182.274C246.918 182.694 247.663 183.103 248.419 183.502C248.671 183.628 248.923 183.754 249.175 183.88C249.69 184.143 250.204 184.395 250.719 184.647C251.023 184.794 251.349 184.931 251.653 185.078C252.136 185.298 252.609 185.519 253.092 185.718C253.428 185.865 253.775 186.002 254.121 186.149C254.447 186.285 254.772 186.422 255.108 186.558C255.213 186.6 255.318 186.632 255.423 186.674C256.505 187.094 257.586 187.493 258.699 187.871C258.867 187.934 259.046 187.976 259.214 188.039C260.18 188.354 261.156 188.658 262.144 188.952C262.312 189.005 262.469 189.057 262.637 189.099C262.826 189.152 263.015 189.194 263.204 189.246C263.823 189.414 264.454 189.582 265.084 189.74C265.462 189.834 265.85 189.939 266.228 190.034C266.921 190.202 267.614 190.349 268.307 190.506C268.57 190.559 268.822 190.632 269.095 190.685C269.168 190.695 269.242 190.706 269.305 190.727C269.945 190.853 270.586 190.979 271.226 191.094C271.573 191.157 271.919 191.231 272.266 191.283C273.116 191.43 273.988 191.567 274.849 191.693C274.986 191.714 275.112 191.735 275.248 191.756C275.259 191.756 275.259 191.756 275.269 191.756C276.256 191.892 277.243 192.018 278.23 192.134C278.472 192.165 278.724 192.176 278.965 192.207C279.711 192.281 280.456 192.365 281.212 192.428C281.233 192.428 281.254 192.428 281.275 192.438C281.622 192.47 281.979 192.48 282.336 192.512C282.966 192.554 283.596 192.606 284.226 192.638C284.646 192.659 285.056 192.669 285.476 192.69C286.064 192.711 286.652 192.743 287.24 192.764C287.292 192.764 287.334 192.764 287.387 192.774C287.723 192.785 288.059 192.774 288.384 192.785C289.025 192.795 289.676 192.806 290.316 192.806C290.736 192.806 291.167 192.795 291.587 192.785C292.185 192.774 292.794 192.764 293.393 192.753C293.509 192.753 293.614 192.753 293.729 192.743C294.013 192.732 294.286 192.711 294.569 192.701C295.262 192.669 295.955 192.638 296.648 192.596C297.068 192.575 297.488 192.543 297.908 192.512C298.57 192.459 299.242 192.407 299.903 192.344C300.134 192.323 300.365 192.312 300.607 192.281C300.764 192.26 300.932 192.239 301.09 192.228C302.119 192.123 303.148 191.997 304.177 191.861C304.345 191.84 304.513 191.819 304.681 191.798C305.857 191.63 307.023 191.441 308.178 191.241C308.283 191.22 308.398 191.21 308.503 191.189C308.808 191.136 309.112 191.063 309.427 191.01C309.973 190.905 310.509 190.8 311.044 190.695C311.485 190.601 311.916 190.506 312.357 190.412C312.882 190.296 313.407 190.17 313.932 190.044C314.373 189.939 314.804 189.824 315.234 189.719C315.749 189.582 316.263 189.446 316.778 189.309C317.208 189.194 317.639 189.068 318.059 188.942C318.563 188.795 319.067 188.637 319.571 188.48C319.791 188.406 320.012 188.354 320.232 188.28C320.39 188.228 320.537 188.165 320.694 188.123C321.597 187.818 322.501 187.514 323.383 187.178C323.572 187.104 323.761 187.041 323.939 186.978C324.989 186.579 326.018 186.159 327.026 185.718C327.289 185.603 327.551 185.487 327.814 185.361C328.591 185.014 329.357 184.657 330.113 184.279C330.397 184.143 330.68 184.006 330.953 183.859C331.919 183.366 332.875 182.851 333.799 182.316C334.051 182.169 334.303 182.022 334.555 181.864C334.786 181.728 335.007 181.581 335.238 181.434C335.616 181.192 335.994 180.961 336.361 180.72C336.697 180.499 337.023 180.279 337.348 180.048C337.705 179.806 338.052 179.554 338.398 179.313C338.713 179.082 339.018 178.851 339.322 178.62C339.648 178.368 339.973 178.116 340.288 177.864C340.582 177.633 340.866 177.391 341.139 177.15C341.444 176.887 341.738 176.635 342.032 176.373C342.147 176.268 342.284 176.163 342.399 176.047C342.641 175.827 342.861 175.606 343.092 175.385C343.176 175.301 343.26 175.228 343.344 175.144C343.796 174.703 344.226 174.251 344.636 173.8C344.73 173.695 344.825 173.59 344.919 173.485C348.93 168.988 351.807 163.264 351.807 157.136L352.438 131.966Z" fill="#3072BE"/>
<path d="M334.145 106.418C358.423 120.436 358.549 143.159 334.429 157.167C310.32 171.175 271.09 171.175 246.812 157.167C222.546 143.159 222.42 120.436 246.529 106.418C270.649 92.3997 309.879 92.3997 334.145 106.418Z" fill="#E9F4FB"/>
<path d="M352.438 99.4141C352.438 99.7817 352.406 100.139 352.385 100.506C352.364 100.821 352.353 101.126 352.322 101.441C352.29 101.714 352.259 101.987 352.217 102.26C352.175 102.564 352.133 102.879 352.07 103.184C352.017 103.457 351.965 103.73 351.902 104.003C351.839 104.307 351.765 104.601 351.681 104.906C351.608 105.179 351.524 105.452 351.44 105.725C351.345 106.019 351.251 106.323 351.146 106.617C351.051 106.88 350.947 107.153 350.842 107.416C350.715 107.731 350.589 108.046 350.442 108.35C350.327 108.613 350.201 108.875 350.075 109.138C349.928 109.453 349.76 109.757 349.592 110.062C349.455 110.314 349.319 110.566 349.172 110.818C348.962 111.185 348.731 111.553 348.489 111.91C348.342 112.13 348.206 112.351 348.059 112.571C347.786 112.97 347.492 113.369 347.187 113.768C347.04 113.957 346.914 114.146 346.767 114.335C346.694 114.419 346.631 114.503 346.557 114.587C346.232 114.986 345.896 115.375 345.549 115.774C345.455 115.879 345.36 115.994 345.255 116.099C344.846 116.551 344.415 117.003 343.964 117.444C343.88 117.528 343.796 117.601 343.712 117.685C343.365 118.021 343.008 118.347 342.651 118.672C342.357 118.935 342.063 119.197 341.759 119.449C341.475 119.691 341.191 119.922 340.908 120.163C340.593 120.415 340.267 120.667 339.942 120.919C339.637 121.15 339.333 121.381 339.018 121.612C338.671 121.864 338.325 122.106 337.968 122.347C337.642 122.568 337.317 122.799 336.981 123.019C336.613 123.261 336.235 123.492 335.857 123.733C335.385 124.027 334.912 124.321 334.419 124.615C333.495 125.151 332.539 125.665 331.573 126.159C331.29 126.306 331.006 126.443 330.722 126.579C329.966 126.947 329.2 127.314 328.423 127.661C328.16 127.776 327.908 127.902 327.635 128.018C326.627 128.459 325.598 128.879 324.548 129.278C324.359 129.351 324.17 129.414 323.992 129.477C323.11 129.803 322.207 130.118 321.304 130.422C320.925 130.548 320.558 130.664 320.18 130.79C319.686 130.947 319.182 131.094 318.678 131.252C318.248 131.378 317.817 131.504 317.387 131.619C316.872 131.756 316.368 131.892 315.854 132.029C315.423 132.144 314.982 132.249 314.552 132.354C314.027 132.48 313.502 132.596 312.977 132.722C312.535 132.816 312.105 132.921 311.664 133.005C311.128 133.121 310.582 133.226 310.047 133.32C309.627 133.404 309.217 133.478 308.797 133.551C307.642 133.761 306.466 133.95 305.29 134.108C305.122 134.129 304.954 134.15 304.786 134.171C303.768 134.307 302.739 134.433 301.709 134.538C301.31 134.58 300.922 134.622 300.523 134.654C299.861 134.717 299.2 134.769 298.528 134.822C298.108 134.853 297.688 134.885 297.268 134.906C296.575 134.948 295.882 134.979 295.189 135.011C294.8 135.032 294.401 135.053 294.013 135.063C293.414 135.084 292.805 135.095 292.206 135.095C291.786 135.105 291.356 135.116 290.936 135.116C290.295 135.116 289.644 135.105 289.004 135.095C288.626 135.084 288.237 135.084 287.859 135.074C287.271 135.063 286.683 135.032 286.095 135C285.675 134.979 285.266 134.969 284.846 134.948C284.216 134.916 283.586 134.864 282.956 134.822C282.588 134.79 282.21 134.78 281.842 134.748C281.086 134.685 280.341 134.612 279.595 134.528C279.354 134.507 279.102 134.486 278.86 134.454C277.873 134.339 276.886 134.223 275.899 134.076C275.752 134.055 275.616 134.034 275.469 134.013C274.608 133.887 273.757 133.751 272.907 133.604C272.56 133.541 272.203 133.467 271.857 133.404C271.216 133.289 270.575 133.173 269.945 133.037C269.609 132.963 269.284 132.89 268.948 132.816C268.255 132.669 267.551 132.512 266.869 132.344C266.48 132.249 266.102 132.155 265.724 132.06C265.094 131.903 264.464 131.735 263.845 131.567C263.488 131.472 263.141 131.367 262.784 131.262C261.797 130.979 260.82 130.674 259.854 130.349C259.686 130.296 259.508 130.244 259.34 130.181C258.227 129.803 257.135 129.404 256.064 128.984C255.623 128.816 255.192 128.637 254.762 128.459C254.415 128.322 254.069 128.175 253.733 128.028C253.25 127.818 252.767 127.598 252.294 127.388C251.979 127.241 251.664 127.104 251.359 126.957C250.834 126.705 250.32 126.453 249.816 126.19C249.564 126.064 249.301 125.938 249.06 125.812C248.304 125.413 247.558 125.004 246.823 124.584C239.956 120.615 235.021 115.952 232.017 110.986C229.686 107.122 228.521 103.079 228.531 99.0361L227.901 124.174C227.88 133.415 233.971 142.676 246.183 149.722C246.918 150.142 247.663 150.552 248.419 150.951C248.671 151.077 248.923 151.203 249.175 151.329C249.69 151.591 250.204 151.843 250.719 152.095C251.023 152.242 251.349 152.379 251.653 152.526C252.136 152.746 252.609 152.967 253.092 153.166C253.428 153.313 253.775 153.45 254.121 153.597C254.447 153.733 254.772 153.87 255.108 154.006C255.213 154.048 255.318 154.08 255.423 154.122C256.505 154.542 257.586 154.941 258.699 155.319C258.867 155.382 259.046 155.424 259.214 155.487C260.18 155.802 261.156 156.107 262.144 156.401C262.312 156.453 262.469 156.506 262.637 156.548C262.826 156.6 263.015 156.642 263.204 156.695C263.823 156.863 264.454 157.031 265.084 157.188C265.462 157.283 265.85 157.388 266.228 157.482C266.921 157.65 267.614 157.797 268.307 157.955C268.57 158.007 268.822 158.081 269.095 158.133C269.168 158.144 269.242 158.154 269.305 158.175C269.945 158.301 270.586 158.427 271.226 158.543C271.573 158.606 271.919 158.679 272.266 158.732C273.116 158.879 273.988 159.015 274.849 159.141C274.986 159.162 275.112 159.183 275.248 159.204C275.259 159.204 275.259 159.204 275.269 159.204C276.256 159.341 277.243 159.467 278.23 159.582C278.472 159.614 278.724 159.624 278.965 159.656C279.711 159.729 280.456 159.813 281.212 159.876C281.233 159.876 281.254 159.876 281.275 159.887C281.622 159.918 281.979 159.929 282.336 159.96C282.966 160.002 283.596 160.055 284.226 160.086C284.646 160.107 285.056 160.118 285.476 160.139C286.064 160.16 286.652 160.191 287.24 160.212C287.292 160.212 287.334 160.212 287.387 160.223C287.723 160.233 288.059 160.223 288.384 160.233C289.025 160.244 289.676 160.254 290.316 160.254C290.736 160.254 291.167 160.244 291.587 160.233C292.185 160.223 292.794 160.212 293.393 160.202C293.509 160.202 293.614 160.202 293.729 160.191C294.013 160.181 294.286 160.16 294.569 160.149C295.262 160.118 295.955 160.086 296.648 160.044C297.068 160.023 297.488 159.992 297.908 159.96C298.57 159.908 299.242 159.855 299.903 159.792C300.134 159.771 300.365 159.761 300.607 159.729C300.764 159.708 300.932 159.687 301.09 159.677C302.119 159.572 303.148 159.446 304.177 159.309C304.345 159.288 304.513 159.267 304.681 159.246C305.857 159.078 307.023 158.889 308.178 158.69C308.283 158.669 308.398 158.658 308.503 158.637C308.808 158.585 309.112 158.511 309.427 158.459C309.973 158.354 310.509 158.249 311.044 158.144C311.485 158.049 311.916 157.955 312.357 157.86C312.882 157.745 313.407 157.619 313.932 157.493C314.373 157.388 314.804 157.272 315.234 157.167C315.749 157.031 316.263 156.894 316.778 156.758C317.208 156.642 317.639 156.516 318.059 156.39C318.563 156.243 319.067 156.086 319.571 155.928C319.791 155.855 320.012 155.802 320.232 155.729C320.39 155.676 320.537 155.613 320.694 155.571C321.597 155.266 322.501 154.962 323.383 154.626C323.572 154.552 323.761 154.489 323.939 154.426C324.989 154.027 326.018 153.607 327.026 153.166C327.289 153.051 327.551 152.935 327.814 152.809C328.591 152.463 329.357 152.106 330.113 151.728C330.397 151.591 330.68 151.455 330.953 151.308C331.919 150.814 332.875 150.3 333.799 149.764C334.051 149.617 334.303 149.47 334.555 149.313C334.786 149.176 335.007 149.029 335.238 148.882C335.616 148.641 335.994 148.41 336.361 148.168C336.697 147.948 337.023 147.727 337.348 147.496C337.705 147.255 338.052 147.003 338.398 146.761C338.713 146.53 339.018 146.299 339.322 146.068C339.648 145.816 339.973 145.564 340.288 145.312C340.582 145.081 340.866 144.839 341.139 144.598C341.444 144.335 341.738 144.083 342.032 143.821C342.147 143.716 342.284 143.611 342.399 143.495C342.641 143.275 342.861 143.054 343.092 142.834C343.176 142.75 343.26 142.676 343.344 142.592C343.796 142.151 344.226 141.7 344.636 141.248C344.73 141.143 344.825 141.038 344.919 140.933C348.93 136.437 351.807 130.713 351.807 124.584L352.438 99.4141Z" fill="#3072BE"/>
<path d="M334.145 73.866C358.423 87.8843 358.549 110.607 334.429 124.615C310.32 138.623 271.09 138.623 246.812 124.615C222.546 110.607 222.42 87.8843 246.529 73.866C270.649 59.8478 309.879 59.8478 334.145 73.866Z" fill="#E9F4FB"/>
<path d="M352.438 66.8622C352.438 67.2297 352.406 67.5867 352.385 67.9543C352.364 68.2693 352.353 68.5738 352.322 68.8888C352.29 69.1618 352.259 69.4348 352.217 69.7078C352.175 70.0123 352.133 70.3274 352.07 70.6319C352.017 70.9049 351.965 71.1779 351.902 71.4509C351.839 71.7554 351.765 72.0495 351.681 72.354C351.608 72.627 351.524 72.9 351.44 73.173C351.345 73.467 351.251 73.7715 351.146 74.0655C351.051 74.3281 350.947 74.6011 350.842 74.8636C350.715 75.1786 350.589 75.4936 350.442 75.7982C350.327 76.0607 350.201 76.3232 350.075 76.5857C349.928 76.9007 349.76 77.2052 349.592 77.5097C349.455 77.7617 349.319 78.0137 349.172 78.2658C348.962 78.6333 348.731 79.0008 348.489 79.3578C348.342 79.5783 348.206 79.7989 348.059 80.0194C347.786 80.4184 347.492 80.8174 347.187 81.2164C347.04 81.4054 346.914 81.5944 346.767 81.7834C346.694 81.8675 346.631 81.9515 346.557 82.0355C346.232 82.4345 345.896 82.823 345.549 83.222C345.455 83.327 345.36 83.4425 345.255 83.5475C344.846 83.9991 344.415 84.4506 343.964 84.8916C343.88 84.9756 343.796 85.0491 343.712 85.1331C343.365 85.4691 343.008 85.7947 342.651 86.1202C342.357 86.3827 342.063 86.6452 341.759 86.8972C341.475 87.1387 341.191 87.3697 340.908 87.6113C340.593 87.8633 340.267 88.1153 339.942 88.3673C339.637 88.5983 339.333 88.8293 339.018 89.0603C338.671 89.3123 338.325 89.5538 337.968 89.7954C337.642 90.0159 337.317 90.2469 336.981 90.4674C336.613 90.7089 336.235 90.9399 335.857 91.1814C335.385 91.4755 334.912 91.7695 334.419 92.0635C333.495 92.599 332.539 93.1135 331.573 93.6071C331.29 93.7541 331.006 93.8906 330.722 94.0271C329.966 94.3946 329.2 94.7621 328.423 95.1086C328.16 95.2241 327.908 95.3501 327.635 95.4656C326.627 95.9067 325.598 96.3267 324.548 96.7257C324.359 96.7992 324.17 96.8622 323.992 96.9252C323.11 97.2507 322.207 97.5658 321.304 97.8703C320.925 97.9963 320.558 98.1118 320.18 98.2378C319.686 98.3953 319.182 98.5423 318.678 98.6998C318.248 98.8258 317.817 98.9518 317.387 99.0673C316.872 99.2038 316.368 99.3403 315.854 99.4769C315.423 99.5924 314.982 99.6974 314.552 99.8024C314.027 99.9284 313.502 100.044 312.977 100.17C312.535 100.264 312.105 100.369 311.664 100.453C311.128 100.569 310.582 100.674 310.047 100.768C309.627 100.852 309.217 100.926 308.797 100.999C307.642 101.209 306.466 101.398 305.29 101.556C305.122 101.577 304.954 101.598 304.786 101.619C303.768 101.755 302.739 101.881 301.709 101.986C301.31 102.028 300.922 102.07 300.523 102.102C299.861 102.165 299.2 102.217 298.528 102.27C298.108 102.301 297.688 102.333 297.268 102.354C296.575 102.396 295.882 102.427 295.189 102.459C294.8 102.48 294.401 102.501 294.013 102.512C293.414 102.533 292.805 102.543 292.206 102.543C291.786 102.554 291.356 102.564 290.936 102.564C290.295 102.564 289.644 102.554 289.004 102.543C288.626 102.533 288.237 102.533 287.859 102.522C287.271 102.512 286.683 102.48 286.095 102.448C285.675 102.427 285.266 102.417 284.846 102.396C284.216 102.364 283.586 102.312 282.956 102.27C282.588 102.238 282.21 102.228 281.842 102.196C281.086 102.133 280.341 102.06 279.595 101.976C279.354 101.955 279.102 101.934 278.86 101.902C277.873 101.787 276.886 101.671 275.899 101.524C275.752 101.503 275.616 101.482 275.469 101.461C274.608 101.335 273.757 101.199 272.907 101.052C272.56 100.989 272.203 100.915 271.857 100.852C271.216 100.737 270.575 100.621 269.945 100.485C269.609 100.411 269.284 100.338 268.948 100.264C268.255 100.117 267.551 99.9599 266.869 99.7919C266.48 99.6973 266.102 99.6029 265.724 99.5084C265.094 99.3508 264.464 99.1828 263.845 99.0148C263.488 98.9203 263.141 98.8153 262.784 98.7103C261.797 98.4268 260.82 98.1223 259.854 97.7968C259.686 97.7443 259.508 97.6918 259.34 97.6287C258.227 97.2507 257.135 96.8517 256.064 96.4317C255.623 96.2637 255.192 96.0852 254.762 95.9067C254.415 95.7702 254.069 95.6232 253.733 95.4762C253.25 95.2661 252.767 95.0456 252.294 94.8356C251.979 94.6886 251.664 94.5521 251.359 94.4051C250.834 94.1531 250.32 93.9011 249.816 93.6386C249.564 93.5126 249.301 93.3865 249.06 93.2605C248.304 92.8615 247.558 92.452 246.823 92.032C239.956 88.0628 235.021 83.4005 232.017 78.4338C229.686 74.5696 228.521 70.5269 228.531 66.4842L227.901 91.6225C227.88 100.863 233.971 110.124 246.183 117.17C246.918 117.59 247.663 118 248.419 118.399C248.671 118.525 248.923 118.651 249.175 118.777C249.69 119.039 250.204 119.291 250.719 119.543C251.023 119.69 251.349 119.827 251.653 119.974C252.136 120.194 252.609 120.415 253.092 120.614C253.428 120.761 253.775 120.898 254.121 121.045C254.447 121.181 254.772 121.318 255.108 121.454C255.213 121.496 255.318 121.528 255.423 121.57C256.505 121.99 257.586 122.389 258.699 122.767C258.867 122.83 259.046 122.872 259.214 122.935C260.18 123.25 261.156 123.555 262.144 123.849C262.312 123.901 262.469 123.954 262.637 123.996C262.826 124.048 263.015 124.09 263.204 124.143C263.823 124.311 264.454 124.479 265.084 124.636C265.462 124.731 265.85 124.836 266.228 124.93C266.921 125.098 267.614 125.245 268.307 125.403C268.57 125.455 268.822 125.529 269.095 125.581C269.168 125.592 269.242 125.602 269.305 125.623C269.945 125.749 270.586 125.875 271.226 125.991C271.573 126.054 271.919 126.127 272.266 126.18C273.116 126.327 273.988 126.463 274.849 126.589C274.986 126.61 275.112 126.631 275.248 126.652C275.259 126.652 275.259 126.652 275.269 126.652C276.256 126.789 277.243 126.915 278.23 127.03C278.472 127.062 278.724 127.072 278.965 127.104C279.711 127.177 280.456 127.261 281.212 127.324C281.233 127.324 281.254 127.324 281.275 127.335C281.622 127.366 281.979 127.377 282.336 127.408C282.966 127.45 283.596 127.503 284.226 127.534C284.646 127.555 285.056 127.566 285.476 127.587C286.064 127.608 286.652 127.639 287.24 127.66C287.292 127.66 287.334 127.66 287.387 127.671C287.723 127.681 288.059 127.671 288.384 127.681C289.025 127.692 289.676 127.702 290.316 127.702C290.736 127.702 291.167 127.692 291.587 127.681C292.185 127.671 292.794 127.66 293.393 127.65C293.509 127.65 293.614 127.65 293.729 127.639C294.013 127.629 294.286 127.608 294.569 127.597C295.262 127.566 295.955 127.534 296.648 127.492C297.068 127.471 297.488 127.44 297.908 127.408C298.57 127.356 299.242 127.303 299.903 127.24C300.134 127.219 300.365 127.209 300.607 127.177C300.764 127.156 300.932 127.135 301.09 127.125C302.119 127.02 303.148 126.894 304.177 126.757C304.345 126.736 304.513 126.715 304.681 126.694C305.857 126.526 307.023 126.337 308.178 126.138C308.283 126.117 308.398 126.106 308.503 126.085C308.808 126.033 309.112 125.959 309.427 125.907C309.973 125.802 310.509 125.697 311.044 125.592C311.485 125.497 311.916 125.403 312.357 125.308C312.882 125.193 313.407 125.067 313.932 124.941C314.373 124.836 314.804 124.72 315.234 124.615C315.749 124.479 316.263 124.342 316.778 124.206C317.208 124.09 317.639 123.964 318.059 123.838C318.563 123.691 319.067 123.534 319.571 123.376C319.791 123.303 320.012 123.25 320.232 123.177C320.39 123.124 320.537 123.061 320.694 123.019C321.597 122.715 322.501 122.41 323.383 122.074C323.572 122.001 323.761 121.938 323.939 121.875C324.989 121.475 326.018 121.055 327.026 120.614C327.289 120.499 327.551 120.383 327.814 120.257C328.591 119.911 329.357 119.554 330.113 119.176C330.397 119.039 330.68 118.903 330.953 118.756C331.919 118.262 332.875 117.748 333.799 117.212C334.051 117.065 334.303 116.918 334.555 116.761C334.786 116.624 335.007 116.477 335.238 116.33C335.616 116.089 335.994 115.858 336.361 115.616C336.697 115.396 337.023 115.175 337.348 114.944C337.705 114.703 338.052 114.451 338.398 114.209C338.713 113.978 339.018 113.747 339.322 113.516C339.648 113.264 339.973 113.012 340.288 112.76C340.582 112.529 340.866 112.287 341.139 112.046C341.444 111.783 341.738 111.531 342.032 111.269C342.147 111.164 342.284 111.059 342.399 110.943C342.641 110.723 342.861 110.502 343.092 110.282C343.176 110.198 343.26 110.124 343.344 110.04C343.796 109.599 344.226 109.148 344.636 108.696C344.73 108.591 344.825 108.486 344.919 108.381C348.93 103.885 351.807 98.1607 351.807 92.0319L352.438 66.8622Z" fill="#3072BE"/>
<path d="M334.145 41.3146C358.423 55.3328 358.549 78.056 334.429 92.0637C310.32 106.071 271.09 106.071 246.812 92.0637C222.546 78.056 222.42 55.3328 246.529 41.3146C270.649 27.2964 309.879 27.2964 334.145 41.3146Z" fill="#E9F4FB"/>
<path d="M361.25 46.6952C361.239 46.8002 361.228 46.9052 361.218 47.0102C361.207 47.0942 361.176 47.1782 361.155 47.2622C361.134 47.3567 361.102 47.4617 361.071 47.5563C361.039 47.6403 361.008 47.7137 360.966 47.7977C360.924 47.9027 360.871 48.0077 360.819 48.1127C360.777 48.1862 360.735 48.2598 360.682 48.3333C360.609 48.4488 360.535 48.5642 360.451 48.6798C360.399 48.7428 360.346 48.8163 360.294 48.8793C360.168 49.0368 360.021 49.1838 359.874 49.3308C359.821 49.3833 359.769 49.4358 359.706 49.4883C359.611 49.5723 359.506 49.6563 359.401 49.7403C359.307 49.8138 359.223 49.8873 359.128 49.9608C359.013 50.0449 358.897 50.1183 358.771 50.2023C358.645 50.2863 358.53 50.3704 358.393 50.4439L297.637 85.7467C297.207 85.9987 296.734 86.2087 296.251 86.4082C296.125 86.4607 295.999 86.5027 295.863 86.5552C295.558 86.6602 295.243 86.7547 294.928 86.8387C294.603 86.9332 294.277 87.0172 293.931 87.0907C293.532 87.1747 293.133 87.2482 292.723 87.3007C292.629 87.3112 292.523 87.3322 292.429 87.3427C291.872 87.4057 291.316 87.4268 290.759 87.4373C290.675 87.4373 290.581 87.4373 290.497 87.4373C289.94 87.4373 289.394 87.4057 288.848 87.3427C288.764 87.3322 288.68 87.3218 288.596 87.3113C288.05 87.2482 287.525 87.1537 287 87.0382C286.906 87.0172 286.811 86.9962 286.717 86.9647C286.244 86.8492 285.782 86.7022 285.341 86.5447C285.257 86.5132 285.173 86.4922 285.089 86.4607C284.554 86.2507 284.05 86.0197 283.577 85.7467L222.432 50.4439C220.479 49.3203 219.503 47.8292 219.503 46.3487L218.873 268.897C218.873 270.378 219.849 271.858 221.802 272.992L282.947 308.295C283.398 308.557 283.871 308.778 284.375 308.978C284.396 308.988 284.428 308.999 284.459 309.009C284.543 309.04 284.627 309.061 284.711 309.093C284.995 309.198 285.289 309.303 285.583 309.387C285.751 309.429 285.919 309.471 286.087 309.513C286.181 309.534 286.276 309.566 286.37 309.587C286.454 309.608 286.538 309.629 286.622 309.65C286.948 309.713 287.273 309.776 287.609 309.818C287.725 309.839 287.851 309.839 287.966 309.86C288.05 309.87 288.134 309.881 288.218 309.891C288.334 309.902 288.46 309.923 288.575 309.933C288.901 309.965 289.226 309.975 289.552 309.986C289.657 309.986 289.751 309.986 289.856 309.986C289.951 309.986 290.035 309.986 290.119 309.986C290.266 309.986 290.413 309.986 290.56 309.986C290.927 309.975 291.295 309.944 291.662 309.912C291.704 309.912 291.746 309.902 291.788 309.891C291.883 309.881 291.988 309.86 292.083 309.849C292.366 309.818 292.649 309.786 292.933 309.734C293.059 309.713 293.164 309.671 293.29 309.65C293.626 309.576 293.962 309.492 294.288 309.398C294.466 309.345 294.645 309.324 294.813 309.261C294.949 309.219 295.075 309.156 295.212 309.103C295.338 309.061 295.474 309.009 295.6 308.957C296.083 308.757 296.556 308.547 296.986 308.295L357.742 272.992C357.784 272.971 357.826 272.94 357.868 272.919C357.963 272.866 358.036 272.803 358.12 272.751C358.246 272.677 358.362 272.593 358.477 272.509C358.572 272.436 358.666 272.362 358.75 272.289C358.855 272.205 358.96 272.121 359.055 272.037C359.076 272.016 359.097 272.005 359.118 271.984C359.16 271.953 359.181 271.911 359.223 271.869C359.38 271.722 359.517 271.575 359.643 271.417C359.674 271.386 359.706 271.354 359.737 271.323C359.769 271.291 359.779 271.249 359.811 271.218C359.895 271.102 359.968 270.987 360.042 270.871C360.073 270.819 360.115 270.777 360.136 270.724C360.147 270.703 360.157 270.672 360.168 270.651C360.22 270.546 360.273 270.441 360.315 270.336C360.336 270.273 360.378 270.22 360.399 270.157C360.409 270.136 360.409 270.115 360.42 270.094C360.451 270 360.483 269.895 360.504 269.8C360.525 269.737 360.546 269.663 360.556 269.6C360.556 269.579 360.556 269.569 360.567 269.548C360.588 269.443 360.598 269.338 360.598 269.233C360.609 269.17 360.62 269.096 360.62 269.033C360.62 269.002 360.62 268.97 360.62 268.949L361.25 46.4012C361.271 46.5062 361.26 46.6007 361.25 46.6952Z" fill="url(#paint0_linear_29_1446)"/>
<path d="M248.65 127.673C255.381 131.559 255.412 137.859 248.734 141.744L173.781 185.3C167.092 189.185 156.214 189.185 149.483 185.3L74.0368 141.744C67.3059 137.859 67.2743 131.559 73.9527 127.673L148.905 84.1171C155.594 80.2319 166.473 80.2319 173.204 84.1171L248.65 127.673Z" fill="#ECF5FE"/>
<path d="M253.669 135.265C253.648 135.444 253.638 135.622 253.607 135.801C253.575 135.948 253.533 136.095 253.501 136.242C253.459 136.41 253.418 136.588 253.355 136.756C253.302 136.893 253.239 137.04 253.176 137.176C253.102 137.355 253.018 137.534 252.924 137.712C252.85 137.838 252.777 137.964 252.693 138.09C252.567 138.29 252.441 138.489 252.294 138.689C252.147 138.878 252 139.067 251.842 139.256C251.8 139.298 251.769 139.34 251.727 139.392C251.506 139.634 251.265 139.875 251.002 140.106C250.834 140.253 250.656 140.4 250.477 140.547C250.32 140.673 250.162 140.799 249.994 140.925C249.795 141.062 249.585 141.198 249.375 141.335C249.165 141.471 248.955 141.618 248.724 141.755L173.771 185.311C173.256 185.605 172.71 185.878 172.154 186.13C171.996 186.203 171.828 186.266 171.66 186.34C171.219 186.529 170.768 186.697 170.306 186.855C170.138 186.907 169.98 186.97 169.812 187.023C169.518 187.117 169.224 187.191 168.93 187.275C168.699 187.338 168.479 187.401 168.248 187.453C167.933 187.527 167.618 187.59 167.303 187.653C167.082 187.695 166.872 187.747 166.652 187.789C166.011 187.905 165.36 187.989 164.698 188.062C164.499 188.083 164.289 188.094 164.089 188.115C163.701 188.146 163.312 188.178 162.924 188.188C162.672 188.199 162.43 188.209 162.178 188.209C161.863 188.22 161.548 188.22 161.233 188.209C160.971 188.209 160.708 188.199 160.446 188.188C160.152 188.178 159.868 188.157 159.574 188.146C159.312 188.125 159.039 188.104 158.776 188.083C158.493 188.052 158.209 188.02 157.915 187.989C157.653 187.957 157.401 187.915 157.149 187.884C156.844 187.831 156.539 187.779 156.235 187.726C155.993 187.684 155.763 187.632 155.521 187.579C155.164 187.495 154.807 187.411 154.45 187.317C154.25 187.264 154.051 187.212 153.862 187.159C153.232 186.97 152.612 186.771 152.014 186.54C151.72 186.424 151.436 186.298 151.153 186.172C151.006 186.109 150.848 186.046 150.701 185.972C150.271 185.762 149.851 185.552 149.441 185.311L73.9949 141.755C70.6032 139.802 68.9127 137.229 68.9232 134.667L68.293 357.215C68.2825 359.777 69.9732 362.35 73.3649 364.303L148.811 407.859C149.221 408.09 149.641 408.311 150.071 408.521C150.218 408.594 150.376 408.647 150.523 408.72C150.775 408.836 151.027 408.951 151.289 409.056C151.321 409.067 151.352 409.077 151.384 409.088C151.982 409.319 152.591 409.529 153.232 409.707C153.284 409.718 153.326 409.739 153.379 409.76C153.526 409.802 153.673 409.833 153.82 409.865C154.177 409.959 154.523 410.043 154.891 410.127C154.986 410.148 155.08 410.18 155.175 410.201C155.311 410.232 155.458 410.253 155.605 410.274C155.909 410.327 156.214 410.39 156.519 410.432C156.645 410.453 156.76 410.474 156.886 410.495C157.023 410.516 157.159 410.526 157.285 410.537C157.569 410.568 157.852 410.6 158.146 410.631C158.283 410.642 158.419 410.663 158.556 410.673C158.682 410.684 158.808 410.684 158.944 410.694C159.238 410.715 159.522 410.726 159.816 410.736C159.963 410.747 160.11 410.757 160.257 410.757C160.372 410.757 160.488 410.757 160.603 410.757C160.918 410.757 161.233 410.757 161.548 410.757C161.706 410.757 161.863 410.757 162.021 410.757C162.115 410.757 162.199 410.747 162.294 410.736C162.682 410.715 163.071 410.694 163.459 410.663C163.617 410.652 163.774 410.642 163.932 410.631C163.984 410.631 164.026 410.621 164.079 410.61C164.741 410.537 165.392 410.453 166.032 410.337C166.064 410.327 166.095 410.327 166.127 410.327C166.316 410.295 166.494 410.243 166.683 410.211C166.998 410.148 167.313 410.085 167.628 410.012C167.859 409.959 168.08 409.886 168.311 409.833C168.605 409.749 168.899 409.676 169.193 409.581C169.256 409.56 169.319 409.55 169.382 409.529C169.487 409.497 169.581 409.445 169.686 409.413C170.148 409.256 170.6 409.088 171.041 408.899C171.209 408.825 171.366 408.762 171.534 408.689C172.091 408.437 172.637 408.164 173.151 407.87L248.104 364.314C248.178 364.272 248.241 364.23 248.314 364.188C248.472 364.093 248.608 363.988 248.755 363.893C248.965 363.757 249.175 363.621 249.375 363.484C249.543 363.358 249.7 363.232 249.858 363.106C250.036 362.959 250.225 362.822 250.383 362.675C250.414 362.644 250.456 362.623 250.488 362.591C250.708 362.392 250.908 362.182 251.107 361.972C251.149 361.93 251.181 361.888 251.223 361.835C251.338 361.709 251.454 361.573 251.559 361.447C251.601 361.394 251.632 361.331 251.674 361.268C251.821 361.069 251.958 360.869 252.084 360.67C252.136 360.586 252.21 360.502 252.252 360.418C252.273 360.376 252.294 360.334 252.315 360.292C252.409 360.113 252.483 359.935 252.567 359.756C252.609 359.651 252.672 359.546 252.714 359.441C252.724 359.41 252.735 359.368 252.745 359.336C252.808 359.168 252.85 358.99 252.892 358.822C252.924 358.706 252.966 358.591 252.987 358.475C252.997 358.444 252.987 358.412 252.997 358.381C253.029 358.202 253.039 358.024 253.06 357.835C253.071 357.719 253.092 357.604 253.102 357.488C253.102 357.436 253.102 357.383 253.102 357.341L253.733 134.793C253.722 134.929 253.69 135.097 253.669 135.265Z" fill="url(#paint1_linear_29_1446)"/>
<path d="M253.669 135.265C253.648 135.444 253.638 135.622 253.607 135.801C253.575 135.948 253.533 136.095 253.501 136.242C253.459 136.41 253.418 136.588 253.355 136.756C253.302 136.893 253.239 137.04 253.176 137.176C253.102 137.355 253.018 137.534 252.924 137.712C252.85 137.838 252.777 137.964 252.693 138.09C252.567 138.29 252.441 138.489 252.294 138.689C252.147 138.878 252 139.067 251.842 139.256C251.8 139.298 251.769 139.34 251.727 139.392C251.506 139.634 251.265 139.875 251.002 140.106C250.834 140.253 250.656 140.4 250.477 140.547C250.32 140.673 250.162 140.799 249.994 140.925C249.795 141.062 249.585 141.198 249.375 141.335C249.165 141.471 248.955 141.618 248.724 141.755L173.771 185.311C173.256 185.605 172.71 185.878 172.154 186.13C171.996 186.203 171.828 186.266 171.66 186.34C171.219 186.529 170.768 186.697 170.306 186.855C170.138 186.907 169.98 186.97 169.812 187.023C169.518 187.117 169.224 187.191 168.93 187.275C168.699 187.338 168.479 187.401 168.248 187.453C167.933 187.527 167.618 187.59 167.303 187.653C167.082 187.695 166.872 187.747 166.652 187.789C166.011 187.905 165.36 187.989 164.698 188.062C164.499 188.083 164.289 188.094 164.089 188.115C163.701 188.146 163.312 188.178 162.924 188.188C162.672 188.199 162.43 188.209 162.178 188.209C161.863 188.22 161.548 188.22 161.233 188.209C160.971 188.209 160.708 188.199 160.446 188.188C160.152 188.178 159.868 188.157 159.574 188.146C159.312 188.125 159.039 188.104 158.776 188.083C158.493 188.052 158.209 188.02 157.915 187.989C157.653 187.957 157.401 187.915 157.149 187.884C156.844 187.831 156.539 187.779 156.235 187.726C155.993 187.684 155.763 187.632 155.521 187.579C155.164 187.495 154.807 187.411 154.45 187.317C154.25 187.264 154.051 187.212 153.862 187.159C153.232 186.97 152.612 186.771 152.014 186.54C151.72 186.424 151.436 186.298 151.153 186.172C151.006 186.109 150.848 186.046 150.701 185.972C150.271 185.762 149.851 185.552 149.441 185.311L73.9949 141.755C70.6032 139.802 68.9127 137.229 68.9232 134.667L68.293 357.215C68.2825 359.777 69.9732 362.35 73.3649 364.303L148.811 407.859C149.221 408.09 149.641 408.311 150.071 408.521C150.218 408.594 150.376 408.647 150.523 408.72C150.775 408.836 151.027 408.951 151.289 409.056C151.321 409.067 151.352 409.077 151.384 409.088C151.982 409.319 152.591 409.529 153.232 409.707C153.284 409.718 153.326 409.739 153.379 409.76C153.526 409.802 153.673 409.833 153.82 409.865C154.177 409.959 154.523 410.043 154.891 410.127C154.986 410.148 155.08 410.18 155.175 410.201C155.311 410.232 155.458 410.253 155.605 410.274C155.909 410.327 156.214 410.39 156.519 410.432C156.645 410.453 156.76 410.474 156.886 410.495C157.023 410.516 157.159 410.526 157.285 410.537C157.569 410.568 157.852 410.6 158.146 410.631C158.283 410.642 158.419 410.663 158.556 410.673C158.682 410.684 158.808 410.684 158.944 410.694C159.238 410.715 159.522 410.726 159.816 410.736C159.963 410.747 160.11 410.757 160.257 410.757C160.372 410.757 160.488 410.757 160.603 410.757C160.918 410.757 161.233 410.757 161.548 410.757C161.706 410.757 161.863 410.757 162.021 410.757C162.115 410.757 162.199 410.747 162.294 410.736C162.682 410.715 163.071 410.694 163.459 410.663C163.617 410.652 163.774 410.642 163.932 410.631C163.984 410.631 164.026 410.621 164.079 410.61C164.741 410.537 165.392 410.453 166.032 410.337C166.064 410.327 166.095 410.327 166.127 410.327C166.316 410.295 166.494 410.243 166.683 410.211C166.998 410.148 167.313 410.085 167.628 410.012C167.859 409.959 168.08 409.886 168.311 409.833C168.605 409.749 168.899 409.676 169.193 409.581C169.256 409.56 169.319 409.55 169.382 409.529C169.487 409.497 169.581 409.445 169.686 409.413C170.148 409.256 170.6 409.088 171.041 408.899C171.209 408.825 171.366 408.762 171.534 408.689C172.091 408.437 172.637 408.164 173.151 407.87L248.104 364.314C248.178 364.272 248.241 364.23 248.314 364.188C248.472 364.093 248.608 363.988 248.755 363.893C248.965 363.757 249.175 363.621 249.375 363.484C249.543 363.358 249.7 363.232 249.858 363.106C250.036 362.959 250.225 362.822 250.383 362.675C250.414 362.644 250.456 362.623 250.488 362.591C250.708 362.392 250.908 362.182 251.107 361.972C251.149 361.93 251.181 361.888 251.223 361.835C251.338 361.709 251.454 361.573 251.559 361.447C251.601 361.394 251.632 361.331 251.674 361.268C251.821 361.069 251.958 360.869 252.084 360.67C252.136 360.586 252.21 360.502 252.252 360.418C252.273 360.376 252.294 360.334 252.315 360.292C252.409 360.113 252.483 359.935 252.567 359.756C252.609 359.651 252.672 359.546 252.714 359.441C252.724 359.41 252.735 359.368 252.745 359.336C252.808 359.168 252.85 358.99 252.892 358.822C252.924 358.706 252.966 358.591 252.987 358.475C252.997 358.444 252.987 358.412 252.997 358.381C253.029 358.202 253.039 358.024 253.06 357.835C253.071 357.719 253.092 357.604 253.102 357.488C253.102 357.436 253.102 357.383 253.102 357.341L253.733 134.793C253.722 134.929 253.69 135.097 253.669 135.265Z" fill="url(#paint2_linear_29_1446)"/>
<path opacity="0.1" d="M109.331 107.567L84.7084 121.52L154.473 165.021L180.738 149.426L109.331 107.567Z" fill="url(#paint3_linear_29_1446)"/>
<path opacity="0.1" d="M136.417 91.152L117.539 102.232L187.304 145.733L207.823 133.011L136.417 91.152Z" fill="url(#paint4_linear_29_1446)"/>
<path d="M360.491 215.836C364.376 218.083 364.397 221.727 360.533 223.974L299.776 259.277C295.912 261.524 289.622 261.524 285.727 259.277L224.582 223.974C220.697 221.727 220.676 218.083 224.54 215.846L285.296 180.544C289.16 178.297 295.45 178.297 299.335 180.544L360.491 215.836Z" fill="#ECF5FE"/>
<path d="M363.399 220.225C363.389 220.33 363.378 220.435 363.368 220.54C363.357 220.624 363.326 220.708 363.305 220.792C363.284 220.886 363.252 220.991 363.221 221.086C363.189 221.17 363.158 221.243 363.116 221.327C363.074 221.432 363.021 221.537 362.969 221.642C362.927 221.716 362.885 221.789 362.832 221.863C362.759 221.978 362.685 222.094 362.601 222.209C362.549 222.272 362.496 222.346 362.444 222.409C362.318 222.566 362.171 222.714 362.024 222.861C361.971 222.913 361.919 222.966 361.856 223.018C361.761 223.102 361.656 223.186 361.551 223.27C361.457 223.344 361.373 223.417 361.278 223.491C361.163 223.575 361.047 223.648 360.921 223.732C360.795 223.816 360.68 223.9 360.543 223.974L299.787 259.276C299.356 259.528 298.884 259.738 298.401 259.938C298.275 259.99 298.149 260.032 298.012 260.085C297.708 260.19 297.393 260.284 297.078 260.368C296.752 260.463 296.427 260.547 296.08 260.62C295.681 260.704 295.282 260.778 294.873 260.83C294.778 260.841 294.673 260.862 294.579 260.872C294.022 260.935 293.466 260.956 292.909 260.967C292.825 260.967 292.731 260.967 292.647 260.967C292.09 260.967 291.544 260.935 290.998 260.872C290.914 260.862 290.83 260.851 290.746 260.841C290.2 260.778 289.675 260.683 289.15 260.568C289.055 260.547 288.961 260.526 288.867 260.494C288.394 260.379 287.932 260.232 287.491 260.074C287.407 260.043 287.323 260.022 287.239 259.99C286.703 259.78 286.199 259.549 285.727 259.276L224.582 223.974C222.629 222.85 221.653 221.359 221.653 219.878L221.022 442.427C221.022 443.907 221.999 445.388 223.952 446.522L285.097 481.825C285.548 482.087 286.021 482.308 286.525 482.507C286.546 482.518 286.577 482.528 286.609 482.539C286.693 482.57 286.777 482.591 286.861 482.623C287.144 482.728 287.438 482.833 287.732 482.917C287.9 482.959 288.068 483.001 288.236 483.043C288.331 483.064 288.425 483.095 288.52 483.116C288.604 483.137 288.688 483.158 288.772 483.179C289.097 483.242 289.423 483.305 289.759 483.347C289.875 483.368 290.001 483.368 290.116 483.389C290.2 483.4 290.284 483.41 290.368 483.421C290.484 483.431 290.61 483.452 290.725 483.463C291.051 483.494 291.376 483.505 291.702 483.515C291.807 483.515 291.901 483.515 292.006 483.515C292.101 483.515 292.185 483.515 292.269 483.515C292.416 483.515 292.563 483.515 292.71 483.515C293.077 483.505 293.445 483.473 293.812 483.442C293.854 483.442 293.896 483.431 293.938 483.421C294.033 483.41 294.138 483.389 294.232 483.379C294.516 483.347 294.799 483.316 295.083 483.263C295.209 483.242 295.314 483.2 295.44 483.179C295.776 483.106 296.112 483.022 296.437 482.927C296.616 482.875 296.794 482.854 296.962 482.791C297.099 482.749 297.225 482.686 297.361 482.633C297.487 482.591 297.624 482.539 297.75 482.486C298.233 482.287 298.705 482.077 299.136 481.825L359.892 446.522C359.934 446.501 359.976 446.469 360.018 446.448C360.113 446.396 360.186 446.333 360.27 446.28C360.396 446.207 360.512 446.123 360.627 446.039C360.722 445.965 360.816 445.892 360.9 445.818C361.005 445.734 361.11 445.65 361.205 445.566C361.226 445.545 361.247 445.535 361.268 445.514C361.31 445.482 361.331 445.44 361.373 445.398C361.53 445.251 361.667 445.104 361.793 444.947C361.824 444.915 361.856 444.884 361.887 444.852C361.919 444.821 361.929 444.779 361.961 444.747C362.045 444.632 362.118 444.516 362.192 444.401C362.223 444.348 362.265 444.306 362.286 444.254C362.297 444.233 362.307 444.201 362.318 444.18C362.37 444.075 362.423 443.97 362.465 443.865C362.486 443.802 362.528 443.75 362.549 443.687C362.559 443.666 362.559 443.645 362.57 443.624C362.601 443.529 362.633 443.424 362.654 443.33C362.675 443.267 362.696 443.193 362.706 443.13C362.706 443.109 362.706 443.099 362.717 443.078C362.738 442.973 362.748 442.868 362.748 442.763C362.759 442.7 362.769 442.626 362.769 442.563C362.769 442.532 362.769 442.5 362.769 442.479L363.399 219.931C363.42 220.036 363.41 220.13 363.399 220.225Z" fill="url(#paint5_linear_29_1446)"/>
<path d="M363.399 220.225C363.389 220.33 363.378 220.435 363.368 220.54C363.357 220.624 363.326 220.708 363.305 220.792C363.284 220.886 363.252 220.991 363.221 221.086C363.189 221.17 363.158 221.243 363.116 221.327C363.074 221.432 363.021 221.537 362.969 221.642C362.927 221.716 362.885 221.789 362.832 221.863C362.759 221.978 362.685 222.094 362.601 222.209C362.549 222.272 362.496 222.346 362.444 222.409C362.318 222.566 362.171 222.714 362.024 222.861C361.971 222.913 361.919 222.966 361.856 223.018C361.761 223.102 361.656 223.186 361.551 223.27C361.457 223.344 361.373 223.417 361.278 223.491C361.163 223.575 361.047 223.648 360.921 223.732C360.795 223.816 360.68 223.9 360.543 223.974L299.787 259.276C299.356 259.528 298.884 259.738 298.401 259.938C298.275 259.99 298.149 260.032 298.012 260.085C297.708 260.19 297.393 260.284 297.078 260.368C296.752 260.463 296.427 260.547 296.08 260.62C295.681 260.704 295.282 260.778 294.873 260.83C294.778 260.841 294.673 260.862 294.579 260.872C294.022 260.935 293.466 260.956 292.909 260.967C292.825 260.967 292.731 260.967 292.647 260.967C292.09 260.967 291.544 260.935 290.998 260.872C290.914 260.862 290.83 260.851 290.746 260.841C290.2 260.778 289.675 260.683 289.15 260.568C289.055 260.547 288.961 260.526 288.867 260.494C288.394 260.379 287.932 260.232 287.491 260.074C287.407 260.043 287.323 260.022 287.239 259.99C286.703 259.78 286.199 259.549 285.727 259.276L224.582 223.974C222.629 222.85 221.653 221.359 221.653 219.878L221.022 442.427C221.022 443.907 221.999 445.388 223.952 446.522L285.097 481.825C285.548 482.087 286.021 482.308 286.525 482.507C286.546 482.518 286.577 482.528 286.609 482.539C286.693 482.57 286.777 482.591 286.861 482.623C287.144 482.728 287.438 482.833 287.732 482.917C287.9 482.959 288.068 483.001 288.236 483.043C288.331 483.064 288.425 483.095 288.52 483.116C288.604 483.137 288.688 483.158 288.772 483.179C289.097 483.242 289.423 483.305 289.759 483.347C289.875 483.368 290.001 483.368 290.116 483.389C290.2 483.4 290.284 483.41 290.368 483.421C290.484 483.431 290.61 483.452 290.725 483.463C291.051 483.494 291.376 483.505 291.702 483.515C291.807 483.515 291.901 483.515 292.006 483.515C292.101 483.515 292.185 483.515 292.269 483.515C292.416 483.515 292.563 483.515 292.71 483.515C293.077 483.505 293.445 483.473 293.812 483.442C293.854 483.442 293.896 483.431 293.938 483.421C294.033 483.41 294.138 483.389 294.232 483.379C294.516 483.347 294.799 483.316 295.083 483.263C295.209 483.242 295.314 483.2 295.44 483.179C295.776 483.106 296.112 483.022 296.437 482.927C296.616 482.875 296.794 482.854 296.962 482.791C297.099 482.749 297.225 482.686 297.361 482.633C297.487 482.591 297.624 482.539 297.75 482.486C298.233 482.287 298.705 482.077 299.136 481.825L359.892 446.522C359.934 446.501 359.976 446.469 360.018 446.448C360.113 446.396 360.186 446.333 360.27 446.28C360.396 446.207 360.512 446.123 360.627 446.039C360.722 445.965 360.816 445.892 360.9 445.818C361.005 445.734 361.11 445.65 361.205 445.566C361.226 445.545 361.247 445.535 361.268 445.514C361.31 445.482 361.331 445.44 361.373 445.398C361.53 445.251 361.667 445.104 361.793 444.947C361.824 444.915 361.856 444.884 361.887 444.852C361.919 444.821 361.929 444.779 361.961 444.747C362.045 444.632 362.118 444.516 362.192 444.401C362.223 444.348 362.265 444.306 362.286 444.254C362.297 444.233 362.307 444.201 362.318 444.18C362.37 444.075 362.423 443.97 362.465 443.865C362.486 443.802 362.528 443.75 362.549 443.687C362.559 443.666 362.559 443.645 362.57 443.624C362.601 443.529 362.633 443.424 362.654 443.33C362.675 443.267 362.696 443.193 362.706 443.13C362.706 443.109 362.706 443.099 362.717 443.078C362.738 442.973 362.748 442.868 362.748 442.763C362.759 442.7 362.769 442.626 362.769 442.563C362.769 442.532 362.769 442.5 362.769 442.479L363.399 219.931C363.42 220.036 363.41 220.13 363.399 220.225Z" fill="url(#paint6_linear_29_1446)"/>
<path d="M238.499 232.401V268.514" stroke="#158BF8" stroke-width="1.28977"/>
<circle cx="309.006" cy="290.01" r="1.71969" fill="#158BF8"/>
<circle cx="267.733" cy="268.514" r="1.71969" fill="#158BF8"/>
<path d="M299.548 260.346V276.99C299.548 278.347 301.046 279.169 302.191 278.44L306.363 275.785C307.508 275.057 309.006 275.879 309.006 277.236V288.291" stroke="#158BF8" stroke-width="1.28977"/>
<path d="M288.799 375.995V306.875C288.799 304.149 287.365 301.623 285.023 300.227L270.876 291.796C268.794 290.556 267.518 288.311 267.518 285.887V268.944" stroke="#158BF8" stroke-width="1.28977"/>
<path d="M345.676 245.149C346.385 244.743 346.967 245.066 346.967 245.879L347.041 275.727C347.041 276.539 346.469 277.524 345.76 277.93L319.674 292.9C318.964 293.307 318.388 292.984 318.388 292.171L318.314 262.323C318.314 261.51 318.885 260.521 319.595 260.119L345.676 245.149Z" fill="#0967BD"/>
<path fill-rule="evenodd" clip-rule="evenodd" d="M318.314 266.245V262.858C318.314 261.694 318.93 260.617 319.934 260.027L326.826 255.978L351.344 270.134C352.939 271.054 355.515 271.054 357.097 270.134L381.973 255.679C383.555 254.759 383.547 253.267 381.956 252.347L363.456 241.671V226.492L405.783 250.919C408.736 252.627 408.752 255.396 405.815 257.104L359.635 283.937C356.698 285.645 351.918 285.645 348.957 283.937L318.314 266.245Z" fill="#ECF5FE"/>
<path opacity="0.2" d="M331.856 258.998L318.314 266.385V262.955C318.314 261.777 318.945 260.689 319.968 260.105L326.932 256.126L331.856 258.998Z" fill="#262626"/>
<path d="M375.812 128.317C377.324 129.189 378.542 131.299 378.542 133.042L378.416 177.712C378.416 179.444 377.177 180.148 375.676 179.276L331.09 153.539C329.578 152.668 328.36 150.547 328.36 148.814L328.486 104.145C328.486 102.402 329.715 101.709 331.227 102.58L375.812 128.317Z" fill="#60B2FE"/>
<path d="M362.508 136.14C364.02 137.012 365.238 139.133 365.238 140.866L365.112 185.535C365.112 187.267 363.873 187.971 362.371 187.099L317.786 161.363C316.274 160.491 315.056 158.37 315.056 156.637L315.182 111.968C315.182 110.225 316.421 109.522 317.922 110.393L362.508 136.14Z" fill="#FDC800"/>
<path d="M323.623 141.257L355.868 159.314V173.501L323.623 155.445V141.257Z" fill="#FDA700"/>
<path d="M210.407 256.844C212.425 258.001 212.435 259.864 210.428 261.01L195.523 269.554C193.516 270.7 190.25 270.711 188.233 269.554L173.23 261.01C171.212 259.864 171.201 257.99 173.208 256.844L188.113 248.3C190.12 247.143 193.386 247.154 195.403 248.3L210.407 256.844Z" fill="#60B2FE"/>
<path d="M246.908 166.369C248.861 167.493 248.872 169.331 246.929 170.454L228.06 181.417C226.117 182.54 222.957 182.54 221.003 181.417L213.191 176.901C211.238 175.767 211.228 173.94 213.17 172.817L232.04 161.854C233.982 160.731 237.143 160.72 239.096 161.854L246.908 166.369Z" fill="#60B2FE"/>
<path d="M261.599 183.17C263.552 184.304 263.562 186.131 261.62 187.255L242.75 198.217C240.808 199.341 237.647 199.351 235.694 198.217L227.882 193.702C225.928 192.578 225.918 190.741 227.861 189.617L246.73 178.655C248.673 177.521 251.833 177.531 253.786 178.655L261.599 183.17Z" fill="#60B2FE"/>
<path d="M152.423 227.069C154.744 228.413 154.754 230.576 152.455 231.91L116.385 252.869C114.086 254.202 110.348 254.202 108.027 252.869L71.7161 231.91C69.406 230.576 69.3955 228.402 71.6846 227.069L107.754 206.11C110.053 204.776 113.792 204.776 116.102 206.11L152.423 227.069Z" fill="#ECF5FE"/>
<path d="M154.177 229.515C154.177 229.715 154.135 229.925 154.072 230.124C154.061 230.145 154.061 230.166 154.051 230.187C153.988 230.376 153.893 230.555 153.767 230.733C153.746 230.765 153.725 230.796 153.704 230.828C153.578 231.006 153.421 231.174 153.232 231.342C153.116 231.447 152.959 231.552 152.822 231.647C152.696 231.731 152.591 231.825 152.455 231.909L116.385 252.869C116.133 253.016 115.85 253.142 115.566 253.257C115.493 253.289 115.409 253.32 115.335 253.341C115.157 253.404 114.968 253.457 114.779 253.509C114.59 253.562 114.39 253.614 114.191 253.656C113.949 253.709 113.718 253.751 113.466 253.782C113.414 253.793 113.351 253.803 113.298 253.803C112.973 253.835 112.637 253.856 112.301 253.856C112.248 253.856 112.196 253.856 112.143 253.856C111.818 253.856 111.482 253.835 111.167 253.803C111.114 253.803 111.072 253.793 111.02 253.782C110.694 253.74 110.379 253.688 110.064 253.614C110.012 253.604 109.949 253.583 109.896 253.572C109.613 253.499 109.34 253.415 109.077 253.32C109.024 253.299 108.983 253.289 108.93 253.268C108.615 253.142 108.31 253.005 108.027 252.837L71.7161 231.878C70.5506 231.206 69.973 230.324 69.973 229.442L69.343 451.99C69.343 452.872 69.9206 453.754 71.0861 454.426L107.397 475.385C107.659 475.543 107.954 475.679 108.248 475.795C108.258 475.805 108.279 475.805 108.3 475.816C108.342 475.837 108.394 475.847 108.447 475.868C108.626 475.931 108.794 475.994 108.972 476.047C109.067 476.078 109.172 476.099 109.266 476.12C109.319 476.131 109.382 476.152 109.434 476.162C109.487 476.173 109.539 476.194 109.592 476.204C109.781 476.246 109.98 476.278 110.18 476.309C110.253 476.32 110.316 476.32 110.39 476.33C110.442 476.341 110.484 476.341 110.537 476.351C110.61 476.362 110.684 476.372 110.757 476.372C110.946 476.393 111.146 476.404 111.335 476.404C111.398 476.404 111.45 476.404 111.513 476.404C111.566 476.404 111.618 476.404 111.671 476.404C111.755 476.404 111.849 476.404 111.933 476.404C112.154 476.393 112.374 476.383 112.584 476.362C112.605 476.362 112.637 476.351 112.658 476.351C112.721 476.341 112.773 476.33 112.826 476.33C112.994 476.309 113.172 476.288 113.33 476.257C113.403 476.246 113.466 476.215 113.54 476.204C113.739 476.162 113.939 476.11 114.128 476.057C114.233 476.026 114.338 476.015 114.443 475.984C114.527 475.952 114.6 475.921 114.684 475.889C114.758 475.858 114.842 475.837 114.915 475.805C115.199 475.69 115.482 475.564 115.734 475.417L151.804 454.458C151.825 454.447 151.856 454.426 151.877 454.416C151.993 454.353 152.066 454.269 152.171 454.195C152.318 454.09 152.465 453.996 152.581 453.891C152.591 453.88 152.612 453.87 152.623 453.859C152.759 453.733 152.885 453.597 152.99 453.471C153.011 453.439 153.032 453.408 153.053 453.376C153.074 453.345 153.095 453.313 153.116 453.282C153.148 453.229 153.19 453.177 153.221 453.124C153.284 453.009 153.337 452.904 153.379 452.788C153.389 452.767 153.389 452.757 153.389 452.736C153.4 452.715 153.4 452.694 153.41 452.673C153.431 452.599 153.463 452.526 153.473 452.452C153.494 452.337 153.505 452.232 153.515 452.116C153.515 452.095 153.515 452.085 153.515 452.064L154.177 229.515Z" fill="url(#paint7_linear_29_1446)"/>
<path d="M154.177 229.515C154.177 229.715 154.135 229.925 154.072 230.124C154.061 230.145 154.061 230.166 154.051 230.187C153.988 230.376 153.893 230.555 153.767 230.733C153.746 230.765 153.725 230.796 153.704 230.828C153.578 231.006 153.421 231.174 153.232 231.342C153.116 231.447 152.959 231.552 152.822 231.647C152.696 231.731 152.591 231.825 152.455 231.909L116.385 252.869C116.133 253.016 115.85 253.142 115.566 253.257C115.493 253.289 115.409 253.32 115.335 253.341C115.157 253.404 114.968 253.457 114.779 253.509C114.59 253.562 114.39 253.614 114.191 253.656C113.949 253.709 113.718 253.751 113.466 253.782C113.414 253.793 113.351 253.803 113.298 253.803C112.973 253.835 112.637 253.856 112.301 253.856C112.248 253.856 112.196 253.856 112.143 253.856C111.818 253.856 111.482 253.835 111.167 253.803C111.114 253.803 111.072 253.793 111.02 253.782C110.694 253.74 110.379 253.688 110.064 253.614C110.012 253.604 109.949 253.583 109.896 253.572C109.613 253.499 109.34 253.415 109.077 253.32C109.024 253.299 108.983 253.289 108.93 253.268C108.615 253.142 108.31 253.005 108.027 252.837L71.7161 231.878C70.5506 231.206 69.973 230.324 69.973 229.442L69.343 451.99C69.343 452.872 69.9206 453.754 71.0861 454.426L107.397 475.385C107.659 475.543 107.954 475.679 108.248 475.795C108.258 475.805 108.279 475.805 108.3 475.816C108.342 475.837 108.394 475.847 108.447 475.868C108.626 475.931 108.794 475.994 108.972 476.047C109.067 476.078 109.172 476.099 109.266 476.12C109.319 476.131 109.382 476.152 109.434 476.162C109.487 476.173 109.539 476.194 109.592 476.204C109.781 476.246 109.98 476.278 110.18 476.309C110.253 476.32 110.316 476.32 110.39 476.33C110.442 476.341 110.484 476.341 110.537 476.351C110.61 476.362 110.684 476.372 110.757 476.372C110.946 476.393 111.146 476.404 111.335 476.404C111.398 476.404 111.45 476.404 111.513 476.404C111.566 476.404 111.618 476.404 111.671 476.404C111.755 476.404 111.849 476.404 111.933 476.404C112.154 476.393 112.374 476.383 112.584 476.362C112.605 476.362 112.637 476.351 112.658 476.351C112.721 476.341 112.773 476.33 112.826 476.33C112.994 476.309 113.172 476.288 113.33 476.257C113.403 476.246 113.466 476.215 113.54 476.204C113.739 476.162 113.939 476.11 114.128 476.057C114.233 476.026 114.338 476.015 114.443 475.984C114.527 475.952 114.6 475.921 114.684 475.889C114.758 475.858 114.842 475.837 114.915 475.805C115.199 475.69 115.482 475.564 115.734 475.417L151.804 454.458C151.825 454.447 151.856 454.426 151.877 454.416C151.993 454.353 152.066 454.269 152.171 454.195C152.318 454.09 152.465 453.996 152.581 453.891C152.591 453.88 152.612 453.87 152.623 453.859C152.759 453.733 152.885 453.597 152.99 453.471C153.011 453.439 153.032 453.408 153.053 453.376C153.074 453.345 153.095 453.313 153.116 453.282C153.148 453.229 153.19 453.177 153.221 453.124C153.284 453.009 153.337 452.904 153.379 452.788C153.389 452.767 153.389 452.757 153.389 452.736C153.4 452.715 153.4 452.694 153.41 452.673C153.431 452.599 153.463 452.526 153.473 452.452C153.494 452.337 153.505 452.232 153.515 452.116C153.515 452.095 153.515 452.085 153.515 452.064L154.177 229.515Z" fill="url(#paint8_linear_29_1446)"/>
<path d="M83.0668 237.587V248.538C83.0668 250.418 83.9873 252.18 85.5312 253.254L90.0412 256.392C91.5851 257.466 92.5056 259.227 92.5056 261.108V296.682" stroke="#158BF8" stroke-width="1.23115"/>
<path d="M213.895 37.9309C215.848 39.0649 215.858 40.8921 213.916 42.0261L199.498 50.4055C197.556 51.5396 194.385 51.5396 192.432 50.4055L177.92 42.0261C175.967 40.8921 175.956 39.0649 177.899 37.9309L192.316 29.5515C194.259 28.4174 197.43 28.4174 199.383 29.5515L213.895 37.9309Z" fill="#60B2FE"/>
<path d="M98.6516 37.671C100.07 36.8581 101.233 37.5045 101.233 39.1303L101.381 91.2643C101.381 92.8901 100.238 94.8587 98.819 95.6716L76.7578 108.911C75.339 109.723 74.1862 109.077 74.1862 107.451L74.0383 55.3177C74.0383 53.6919 75.1813 51.7135 76.6001 50.9104L98.6516 37.671Z" fill="#FDC800"/>
<path d="M96.1991 97.2359L76.758 108.91C75.3391 109.723 74.1863 109.077 74.1863 107.451L74.0385 83.6933L96.1991 97.2359Z" fill="#FDA700"/>
<path d="M129.583 19.6142C131.002 18.8013 132.165 19.4477 132.165 21.0735L132.313 73.2075C132.313 74.8333 131.17 76.8019 129.751 77.6148L112.871 87.707C111.453 88.5199 110.3 87.8735 110.3 86.2477L110.152 34.1141C110.152 32.4883 111.295 30.5099 112.714 29.7068L129.583 19.6142Z" fill="#ECF5FE"/>
<path d="M266.336 80.8207L275.217 86.3331C277.916 88.0087 277.789 91.9785 274.987 93.477L265.11 98.76C261.42 100.734 259.115 104.58 259.115 108.765V150.084C259.115 153.533 257.392 156.754 254.522 158.667L251.379 160.762M193.615 138.585L180.401 146.442C177.734 148.028 177.706 151.88 180.351 153.504L200.98 166.171C202.813 167.297 203.93 169.294 203.93 171.445V243.921C203.93 248.317 201.599 252.383 197.805 254.604L189.076 259.713C185.179 261.995 182.784 266.172 182.784 270.688V288.926C182.784 300.462 173.432 309.814 161.896 309.814C150.36 309.814 141.008 300.462 141.008 288.926V246.008C141.008 243.047 139.422 240.313 136.851 238.843L126.567 232.967" stroke="white" stroke-width="2.063"/>
<path d="M331.111 47.6395L331.069 60.4817L318.164 62.8758L318.206 50.0441L331.111 47.6395Z" fill="#0879E2"/>
<path d="M310.11 40.1105C309.522 39.7745 308.913 39.449 308.283 39.1445C308.073 39.05 307.863 38.9555 307.653 38.861C307.222 38.6615 306.792 38.4725 306.34 38.2939C306.256 38.2624 306.172 38.2204 306.088 38.1889C305.805 38.0734 305.521 37.9789 305.227 37.8739C305.038 37.8109 304.86 37.7374 304.671 37.6744C304.082 37.4749 303.494 37.2859 302.885 37.1074C302.686 37.0444 302.486 36.9919 302.287 36.9289C302.182 36.8974 302.077 36.8764 301.982 36.8554C301.321 36.6769 300.649 36.5089 299.966 36.3618C299.903 36.3513 299.83 36.3303 299.767 36.3093C299.746 36.3093 299.725 36.2988 299.693 36.2988C298.99 36.1518 298.265 36.0363 297.541 35.9208C297.467 35.9103 297.404 35.8998 297.331 35.8893C296.942 35.8368 296.543 35.7843 296.144 35.7423C295.567 35.6688 294.978 35.6163 294.39 35.5638C294.369 35.5638 294.348 35.5638 294.327 35.5533C294.275 35.5533 294.222 35.5533 294.159 35.5428C293.403 35.4798 292.637 35.4483 291.87 35.4168C291.776 35.4168 291.671 35.4063 291.576 35.4063C291.524 35.4063 291.461 35.4063 291.408 35.4063C290.579 35.3853 289.76 35.3958 288.93 35.4168C288.857 35.4168 288.794 35.4168 288.72 35.4168C288.636 35.4168 288.552 35.4273 288.468 35.4378C287.565 35.4693 286.652 35.5323 285.759 35.6163C285.717 35.6163 285.675 35.6163 285.644 35.6268C285.455 35.6478 285.276 35.6688 285.087 35.6898C284.751 35.7318 284.415 35.7633 284.079 35.8053C283.827 35.8368 283.585 35.8788 283.333 35.9103C283.008 35.9628 282.682 36.0048 282.357 36.0678C282.262 36.0888 282.168 36.0993 282.073 36.1098C281.979 36.1308 281.895 36.1518 281.8 36.1728C281.002 36.3198 280.215 36.4878 279.438 36.6769C279.427 36.6769 279.427 36.6769 279.417 36.6874C278.65 36.8764 277.894 37.0969 277.159 37.3279C277.075 37.3594 276.981 37.3804 276.886 37.4014C276.802 37.4329 276.718 37.4644 276.634 37.4854C276.329 37.5904 276.025 37.6954 275.72 37.8004C275.5 37.8844 275.279 37.9579 275.069 38.0419C274.754 38.1574 274.46 38.2834 274.156 38.4094C273.956 38.4934 273.757 38.567 273.557 38.6615C273.232 38.8085 272.906 38.966 272.591 39.113C272.434 39.1865 272.266 39.26 272.108 39.344C271.636 39.5855 271.174 39.8375 270.722 40.1C270.596 40.1735 270.46 40.2575 270.334 40.331C269.914 40.5831 269.515 40.8456 269.126 41.1186C269.042 41.1816 268.958 41.2341 268.874 41.2971C268.412 41.6331 267.961 41.9691 267.551 42.3156C267.509 42.3576 267.467 42.3892 267.425 42.4312C267.226 42.5992 267.037 42.7672 266.858 42.9352C266.711 43.0717 266.575 43.2187 266.428 43.3657C266.323 43.4707 266.217 43.5757 266.112 43.6807C265.766 44.0482 265.43 44.4158 265.136 44.7938C265.136 44.8043 265.125 44.8043 265.125 44.8148C265.115 44.8358 265.094 44.8568 265.083 44.8673C264.8 45.2348 264.548 45.6023 264.317 45.9698C264.264 46.0538 264.212 46.1378 264.159 46.2218C264.117 46.2953 264.065 46.3689 264.023 46.4319C263.844 46.7364 263.697 47.0514 263.561 47.3559C263.529 47.4189 263.508 47.4924 263.477 47.5554C263.414 47.7024 263.34 47.8599 263.288 48.0069C263.193 48.2589 263.109 48.5214 263.036 48.7735V48.784C262.962 49.0465 262.899 49.309 262.847 49.5715C262.805 49.7605 262.773 49.9495 262.752 50.1491C262.752 50.1596 262.752 50.1701 262.742 50.1806C262.689 50.4536 262.647 50.7371 262.616 51.0206C262.605 51.1046 262.605 51.1886 262.595 51.2726C262.584 51.4301 262.563 51.5876 262.563 51.7451C262.563 51.8291 262.563 51.9026 262.563 51.9866L262.532 64.8288C262.532 64.5978 262.553 64.3563 262.574 64.1253C262.584 64.0413 262.584 63.9572 262.595 63.8732C262.626 63.5897 262.668 63.2957 262.731 63.0122C262.794 62.5502 262.889 62.0986 263.025 61.6471V61.6366C263.141 61.2271 263.298 60.8281 263.466 60.4186C263.498 60.3556 263.519 60.2821 263.55 60.2191C263.729 59.8305 263.928 59.4525 264.149 59.0745C264.201 58.9905 264.254 58.9065 264.306 58.8225C264.537 58.4445 264.789 58.0769 265.073 57.7199C265.083 57.6989 265.104 57.6779 265.115 57.6674C265.409 57.2894 265.745 56.9114 266.102 56.5439C266.207 56.4389 266.312 56.3338 266.417 56.2288C266.732 55.9138 267.057 55.5988 267.415 55.2943C267.457 55.2523 267.499 55.2208 267.541 55.1788C267.961 54.8323 268.402 54.4962 268.874 54.1602C268.958 54.0972 269.042 54.0447 269.126 53.9817C269.63 53.6352 270.155 53.2992 270.722 52.9632C271.174 52.7007 271.636 52.4487 272.108 52.2071C272.266 52.1231 272.434 52.0496 272.591 51.9761C272.917 51.8186 273.232 51.6611 273.557 51.5246C273.757 51.4406 273.956 51.3566 274.156 51.2726C274.46 51.1466 274.765 51.0206 275.069 50.9051C275.29 50.8211 275.5 50.7476 275.72 50.6636C276.025 50.5586 276.329 50.443 276.634 50.3485C276.802 50.296 276.981 50.2435 277.149 50.191C277.894 49.96 278.65 49.7395 279.417 49.5505C279.427 49.5505 279.427 49.5505 279.438 49.5505C280.215 49.3615 281.002 49.1935 281.8 49.0465C281.989 49.015 282.168 48.973 282.357 48.9415C282.682 48.889 283.008 48.8365 283.333 48.784C283.585 48.742 283.827 48.7105 284.079 48.679C284.415 48.6369 284.751 48.595 285.087 48.5635C285.307 48.5425 285.539 48.511 285.759 48.49C286.662 48.4059 287.565 48.343 288.468 48.3115C288.626 48.301 288.773 48.3009 288.93 48.2904C289.76 48.2694 290.579 48.259 291.408 48.28C291.566 48.28 291.713 48.2904 291.87 48.2904C292.637 48.3114 293.403 48.3534 294.159 48.4164C294.233 48.4269 294.317 48.4269 294.39 48.4269C294.978 48.4795 295.556 48.532 296.144 48.6055C296.617 48.658 297.079 48.721 297.541 48.7945C298.265 48.8995 298.99 49.0255 299.693 49.1725C299.788 49.1935 299.872 49.2145 299.966 49.2355C300.649 49.3825 301.321 49.5505 301.972 49.729C302.276 49.813 302.581 49.8865 302.885 49.981C303.484 50.1595 304.082 50.3485 304.671 50.548C304.86 50.611 305.038 50.6846 305.227 50.7476C305.594 50.8841 305.973 51.0206 306.33 51.1676C306.771 51.3461 307.212 51.5351 307.642 51.7346C307.852 51.8291 308.062 51.9236 308.272 52.0181C308.902 52.3227 309.511 52.6377 310.099 52.9842C314.898 55.7563 317.597 59.2845 318.185 62.9072L318.216 50.065C317.607 46.4213 314.919 42.8827 310.11 40.1105Z" fill="#096FCE"/>
<path d="M291.545 67.6115L291.513 80.4536L289.13 88.077L289.172 75.2348L291.545 67.6115Z" fill="#0879E2"/>
<path d="M282.252 74.7306C281.79 74.6991 281.338 74.6362 280.876 74.5942C280.036 74.5102 279.196 74.4261 278.367 74.3106C277.957 74.2581 277.548 74.1951 277.138 74.1321C276.287 74.0061 275.458 73.8591 274.628 73.6911C274.156 73.5966 273.673 73.5126 273.211 73.4076C272.959 73.3551 272.707 73.2921 272.465 73.2396C271.667 73.0506 270.89 72.8616 270.113 72.641C270.008 72.6095 269.903 72.5886 269.809 72.5571C268.906 72.305 268.013 72.0215 267.142 71.7275C266.9 71.6435 266.669 71.5595 266.438 71.4755C265.84 71.2655 265.241 71.045 264.663 70.8035C264.033 70.5514 263.435 70.2784 262.826 70.0054C262.532 69.8689 262.227 69.7429 261.933 69.6064C261.062 69.1864 260.211 68.7453 259.403 68.2728C251.685 63.8206 247.863 57.9193 247.884 51.934L247.852 64.7762C247.831 70.7615 251.664 76.6628 259.371 81.115C260.18 81.577 261.03 82.018 261.902 82.4485C262.196 82.585 262.5 82.7111 262.794 82.8476C263.393 83.1206 264.002 83.3936 264.632 83.6456C264.726 83.6876 264.811 83.7296 264.916 83.7716C265.409 83.9606 265.913 84.1391 266.417 84.3176C266.648 84.4016 266.879 84.4962 267.121 84.5697C267.961 84.8532 268.822 85.1262 269.693 85.3782C269.725 85.3887 269.756 85.3887 269.777 85.3992C269.882 85.4307 269.977 85.4517 270.082 85.4832C270.848 85.6932 271.636 85.8927 272.434 86.0817C272.686 86.1343 272.927 86.1972 273.179 86.2497C273.41 86.3022 273.641 86.3548 273.883 86.4073C274.114 86.4598 274.366 86.4913 274.607 86.5333C275.437 86.6908 276.277 86.8378 277.117 86.9743C277.359 87.0163 277.59 87.0688 277.831 87.1003C277.999 87.1213 278.167 87.1318 278.335 87.1528C279.165 87.2683 280.005 87.3523 280.845 87.4363C281.128 87.4678 281.401 87.5098 281.674 87.5308C281.853 87.5413 282.031 87.5623 282.22 87.5728L289.13 88.0873L289.161 75.2452L282.252 74.7306Z" fill="#096FCE"/>
<path d="M319.139 33.5689C323.969 36.3516 327.477 39.8692 329.272 43.7229L331.11 47.6396L318.205 50.0338C317.606 46.4111 314.918 42.8829 310.119 40.1107C307.946 38.8612 305.51 37.8531 302.916 37.1076C300.784 36.4566 298.516 36.0051 296.175 35.7425C287.27 34.661 277.641 36.11 270.763 40.1107C265.944 42.9144 263.276 46.4951 262.772 50.1598C261.88 54.5595 264.179 59.0327 269.776 62.2564C269.902 62.3299 270.049 62.3929 270.186 62.4664C270.417 62.6134 270.648 62.7604 270.9 62.8969C276.591 66.1836 284.12 67.7482 291.554 67.6012L289.181 75.2245L282.272 74.71C273.619 74.0695 265.502 71.7804 259.423 68.2732C243.609 59.1377 244.144 43.9225 260.609 34.3565C277.074 24.7905 303.325 24.444 319.139 33.5689Z" fill="#158BF8"/>
<path d="M323.677 23.0051L323.645 35.8473L313.817 41.8851L313.848 29.0534L323.677 23.0051Z" fill="#F3A610"/>
<path d="M311.254 27.3314C310.666 26.9849 310.047 26.6698 309.417 26.3653C309.217 26.2708 309.007 26.1763 308.808 26.0818C308.367 25.8823 307.915 25.6828 307.464 25.4938C307.359 25.4518 307.254 25.3993 307.138 25.3573C306.96 25.2838 306.781 25.2313 306.603 25.1683C306.34 25.0738 306.088 24.9792 305.826 24.8847C305.5 24.7692 305.164 24.6642 304.828 24.5592C304.566 24.4752 304.303 24.3912 304.04 24.3177C303.935 24.2862 303.831 24.2547 303.726 24.2232C303.61 24.1917 303.484 24.1707 303.369 24.1392C302.602 23.9292 301.814 23.7402 301.027 23.5617C300.932 23.5407 300.848 23.5092 300.754 23.4987C300.722 23.4882 300.68 23.4882 300.649 23.4777C299.83 23.3097 299 23.1731 298.16 23.0471C298.087 23.0366 298.013 23.0157 297.94 23.0052C297.457 22.9422 296.974 22.8791 296.491 22.8266C295.987 22.7636 295.483 22.7216 294.979 22.6796C294.716 22.6586 294.443 22.6586 294.181 22.6376C293.803 22.6166 293.435 22.5956 293.057 22.5746C292.836 22.5641 292.626 22.5431 292.406 22.5431C292.08 22.5326 291.755 22.5536 291.44 22.5431C291.009 22.5431 290.589 22.5431 290.159 22.5536C289.98 22.5536 289.812 22.5536 289.634 22.5536C289.329 22.5641 289.014 22.5956 288.71 22.6166C288.164 22.6481 287.628 22.6796 287.082 22.7216C286.904 22.7426 286.715 22.7426 286.536 22.7531C285.927 22.8161 285.318 22.8897 284.709 22.9737L284.384 23.0156C284.121 23.0576 283.848 23.0997 283.585 23.1417C283.281 23.1942 282.976 23.2467 282.672 23.2992C282.472 23.3307 282.273 23.3727 282.063 23.4147C281.149 23.5932 280.246 23.8137 279.364 24.0447C279.091 24.1182 278.829 24.2022 278.566 24.2757C278.199 24.3807 277.821 24.4752 277.464 24.5907C277.159 24.6852 276.865 24.8007 276.561 24.9058C276.414 24.9583 276.256 25.0108 276.109 25.0633C275.322 25.3468 274.555 25.6618 273.81 25.9978C273.663 26.0608 273.515 26.1343 273.368 26.2078C272.602 26.5648 271.856 26.9428 271.153 27.3524C271.027 27.4259 270.89 27.4994 270.764 27.5834C270.659 27.6464 270.565 27.7094 270.46 27.7724C270.271 27.8879 270.082 28.0034 269.903 28.1294C269.746 28.2344 269.599 28.3394 269.441 28.4339C269.263 28.5494 269.095 28.6754 268.927 28.8014C268.78 28.9064 268.643 29.0115 268.496 29.1165C268.328 29.2425 268.171 29.3685 268.013 29.4945C267.877 29.5995 267.751 29.715 267.614 29.82C267.467 29.946 267.32 30.072 267.173 30.2085C267.1 30.2715 267.026 30.3345 266.963 30.3975C266.921 30.4395 266.89 30.471 266.848 30.513C266.575 30.765 266.323 31.0276 266.071 31.2796C266.039 31.3111 265.997 31.3531 265.966 31.3846C265.693 31.6786 265.441 31.9726 265.199 32.2771C265.178 32.3086 265.147 32.3296 265.126 32.3611C265.073 32.4346 265.031 32.4976 264.968 32.5711C264.842 32.7391 264.716 32.9072 264.601 33.0752C264.527 33.1802 264.454 33.2957 264.38 33.4007C264.275 33.5687 264.17 33.7367 264.076 33.8942C264.034 33.9572 263.992 34.0202 263.96 34.0832C263.929 34.1357 263.907 34.1777 263.886 34.2302C263.813 34.3667 263.739 34.5137 263.666 34.6502C263.603 34.7658 263.55 34.8918 263.487 35.0073C263.424 35.1543 263.362 35.2908 263.309 35.4378C263.277 35.5218 263.236 35.6058 263.204 35.6793C263.194 35.7213 263.183 35.7633 263.162 35.7948C263.109 35.9208 263.078 36.0573 263.036 36.1833C262.994 36.3093 262.952 36.4353 262.92 36.5614C262.889 36.6874 262.857 36.8239 262.826 36.9499C262.805 37.0444 262.773 37.1284 262.763 37.2229C262.752 37.2649 262.752 37.2964 262.742 37.3384C262.721 37.4644 262.7 37.6009 262.679 37.7269C262.658 37.8529 262.637 37.9894 262.626 38.1154C262.616 38.2414 262.605 38.3779 262.595 38.5039C262.584 38.5984 262.574 38.6824 262.574 38.7769C262.574 38.8505 262.574 38.9345 262.574 39.008L262.542 51.8501C262.542 51.6821 262.553 51.5141 262.563 51.3461C262.574 51.2201 262.574 51.0836 262.595 50.9576C262.605 50.8316 262.626 50.6951 262.647 50.5691C262.668 50.4431 262.689 50.3066 262.71 50.1805C262.731 50.0545 262.763 49.9285 262.794 49.792C262.826 49.666 262.857 49.5295 262.889 49.4035C262.92 49.2775 262.962 49.1515 263.004 49.0255C263.046 48.8995 263.088 48.763 263.13 48.637C263.172 48.511 263.225 48.3954 263.277 48.2694C263.33 48.1224 263.393 47.9859 263.456 47.8389C263.509 47.7129 263.571 47.5974 263.634 47.4714C263.708 47.3349 263.771 47.1879 263.855 47.0514C263.918 46.9359 263.981 46.8204 264.054 46.7153C264.149 46.5473 264.254 46.3793 264.359 46.2218C264.433 46.1168 264.506 46.0013 264.58 45.8963C264.695 45.7283 264.821 45.5603 264.947 45.3923C265.021 45.2978 265.094 45.1928 265.178 45.0983C265.42 44.8042 265.672 44.4998 265.945 44.2057C265.976 44.1742 266.018 44.1322 266.05 44.1007C266.291 43.8382 266.554 43.5862 266.816 43.3342C266.921 43.2292 267.037 43.1347 267.152 43.0297C267.299 42.9037 267.446 42.7776 267.593 42.6411C267.719 42.5361 267.856 42.4206 267.992 42.3156C268.15 42.1896 268.307 42.0636 268.475 41.9376C268.612 41.8326 268.759 41.7276 268.906 41.6226C269.074 41.4966 269.252 41.3811 269.42 41.2551C269.567 41.1501 269.725 41.0451 269.882 40.9506C270.061 40.8351 270.25 40.7091 270.439 40.5936C270.659 40.457 270.89 40.31 271.121 40.1735C271.825 39.764 272.581 39.386 273.337 39.029C273.484 38.9554 273.631 38.8925 273.778 38.819C274.524 38.4829 275.29 38.1679 276.078 37.8844C276.225 37.8319 276.382 37.7794 276.529 37.7269C277.18 37.4959 277.852 37.2964 278.524 37.0969C278.797 37.0234 279.06 36.9393 279.333 36.8658C280.215 36.6348 281.107 36.4143 282.031 36.2358C282.535 36.1413 283.029 36.0468 283.544 35.9733C283.806 35.9313 284.069 35.8893 284.342 35.8473L284.667 35.8053C285.455 35.7003 286.242 35.6268 287.04 35.5533C287.586 35.5008 288.122 35.4693 288.668 35.4483C289.151 35.4273 289.634 35.3958 290.117 35.3853C290.547 35.3748 290.978 35.3748 291.398 35.3748C291.944 35.3748 292.479 35.3853 293.015 35.4063C293.393 35.4168 293.761 35.4378 294.139 35.4693C294.916 35.5218 295.693 35.5743 296.449 35.6583C297.005 35.7213 297.562 35.7948 298.108 35.8788C298.948 36.0048 299.777 36.1413 300.596 36.3093C300.722 36.3408 300.848 36.3723 300.974 36.3933C301.772 36.5613 302.549 36.7503 303.316 36.9709C303.537 37.0339 303.768 37.0864 303.978 37.1494C304.24 37.2229 304.513 37.3069 304.776 37.3909C305.112 37.4959 305.448 37.6009 305.773 37.7164C306.036 37.8109 306.298 37.9054 306.55 37.9999C306.834 38.1049 307.117 38.2204 307.401 38.3359C307.863 38.525 308.304 38.714 308.745 38.924C308.944 39.0185 309.154 39.1025 309.354 39.2075C309.984 39.512 310.603 39.827 311.191 40.1735C312.136 40.7196 312.997 41.2971 313.785 41.8956L313.817 29.0534C313.06 28.4549 312.199 27.8774 311.254 27.3314Z" fill="#EB920E"/>
<path d="M280.015 53.9924L279.973 66.824L272.465 73.5024L272.497 60.6602L280.015 53.9924Z" fill="#F3A610"/>
<path d="M266.385 58.4656C265.829 58.2661 265.293 58.0561 264.758 57.8461C264.558 57.7621 264.369 57.6885 264.17 57.6045C263.802 57.447 263.445 57.3 263.088 57.132C262.889 57.048 262.7 56.9535 262.5 56.8695C262.133 56.7015 261.776 56.523 261.419 56.3445C261.251 56.2605 261.093 56.1765 260.925 56.0925C260.421 55.8299 259.917 55.5569 259.434 55.2839C254.614 52.5013 251.307 49.1516 249.511 45.5709C248.43 43.4183 247.905 41.1922 247.905 38.9451L247.873 51.7873C247.852 57.7726 251.685 63.6739 259.392 68.1261C259.875 68.4096 260.379 68.6721 260.883 68.9346C261.041 69.0186 261.209 69.1026 261.377 69.1761C261.734 69.3547 262.091 69.5332 262.458 69.7012C262.647 69.7957 262.847 69.8797 263.046 69.9637C263.403 70.1212 263.771 70.2787 264.138 70.4362C264.338 70.5202 264.527 70.6042 264.726 70.6777C264.821 70.7197 264.915 70.7617 265.01 70.7932C265.451 70.9717 265.903 71.1397 266.354 71.2972L272.465 73.4918L272.497 60.6497L266.385 58.4656Z" fill="#EB920E"/>
<path d="M323.676 23.0053L313.848 29.0536C313.06 28.455 312.199 27.8775 311.254 27.3315C307.054 24.9059 301.887 23.4043 296.49 22.8058C292.657 22.3542 288.615 22.4067 284.698 22.9528L284.372 22.9948C284.11 23.0368 283.837 23.0788 283.574 23.1208C283.06 23.2048 282.556 23.2888 282.062 23.3833C278.02 24.1813 274.302 25.4939 271.152 27.321C261.628 32.8548 260.032 41.0662 266.543 46.915C267.803 48.2066 269.378 49.4351 271.289 50.5377C273.872 52.0288 276.844 53.1733 280.004 53.9713L272.486 60.6497L266.375 58.4551C263.865 57.552 261.523 56.481 259.423 55.2734C243.609 46.1379 244.134 30.9332 260.61 21.3567C276.592 12.0742 302.465 11.4967 318.268 20.0756L323.676 23.0053Z" fill="#FDC800"/>
<path d="M305.104 143.076C305.104 144.452 304.34 146.706 303.958 147.661C302.239 152.246 309.116 153.966 307.97 150.527C307.053 147.776 307.97 145.178 308.543 144.223C309.689 145.369 312.211 147.318 313.128 145.942C314.274 144.223 314.274 136.199 313.128 135.053C311.982 133.906 306.824 133.906 305.104 135.053C303.385 136.199 305.104 141.357 305.104 143.076Z" fill="#EEC9BA"/>
<path d="M310.835 230.765C309.001 231.223 307.015 230.574 306.25 230.192L307.814 224.46C308.439 224.078 309.689 223.543 309.689 224.46C309.689 225.607 313.128 226.18 314.847 226.18C316.567 226.18 318.286 227.899 317.713 228.472C317.14 229.045 313.128 230.192 310.835 230.765Z" fill="#2A1963"/>
<path d="M298.227 226.18L298.8 221.595C299.182 220.831 300.061 219.761 300.519 221.595C301.092 223.887 301.665 222.168 303.958 220.449C305.792 219.073 306.25 221.022 306.25 222.168C305.868 223.505 304.416 226.524 301.665 227.899C298.914 229.275 298.227 227.326 298.227 226.18Z" fill="#2A1963"/>
<path opacity="0.1" d="M307.596 221.483L298.037 227.195L325.292 244.781L335.682 238.224L307.596 221.483Z" fill="url(#paint9_linear_29_1446)"/>
<path d="M307.97 143.649L309.116 138.491C314.847 138.491 315.42 136.772 315.42 135.053C315.42 133.333 314.847 131.614 313.701 132.187C312.555 132.76 307.97 132.76 305.104 132.76C302.239 132.76 302.812 136.199 303.385 138.491C303.843 140.325 304.722 142.694 305.104 143.649H307.97Z" fill="#7D392E"/>
<path d="M298.464 183.195C297.891 178.61 298.464 176.318 299.037 173.452L312.792 179.757C314.129 186.825 316.689 201.192 316.231 202.109C315.658 203.255 310.5 226.18 309.927 226.753C309.468 227.212 307.061 226.18 305.915 225.607C306.488 222.359 307.749 215.176 308.207 212.425C308.78 208.986 309.927 203.255 309.927 201.535C309.927 200.16 307.252 195.231 305.915 192.939L304.195 202.109C303.813 206.885 303.049 217.125 303.049 219.876C303.049 222.627 300.374 223.696 299.037 223.887C298.846 221.022 298.464 214.373 298.464 210.705C298.464 207.037 298.846 201.918 299.037 199.816C299.037 195.804 298.923 186.863 298.464 183.195Z" fill="#427FF7"/>
<path d="M293.642 163.709L294.215 155.112H298.8C298.227 157.023 296.966 161.073 296.507 161.99C295.934 163.136 297.08 168.867 298.227 171.733C299.373 174.598 298.718 176.891 297.08 175.172C295.77 173.796 294.242 166.957 293.642 163.709Z" fill="#F8D5C5"/>
<path d="M323.444 166.575C321.725 166.575 317.14 162.563 315.994 161.99L318.286 157.405L323.444 162.563L333.761 153.393L337.199 151.673L338.919 153.966L336.626 155.112C335.862 155.876 333.875 157.748 332.041 159.124C329.749 160.843 325.164 166.575 323.444 166.575Z" fill="#F8D5C5"/>
<path d="M299.373 145.942C301.092 145.942 305.677 146.515 309.116 148.235L312.555 149.381C314.274 149.954 316.567 153.393 317.713 153.966C318.63 154.424 320.77 157.596 321.725 159.124L318.859 164.855C318.477 164.855 317.484 164.626 316.567 163.709C315.65 162.792 313.51 161.034 312.555 160.27L313.701 167.148C314.16 169.899 314.274 177.846 314.274 181.476C312.746 181.667 309.002 181.934 306.251 181.476C303.5 181.017 298.227 178.228 295.934 176.891C296.507 174.981 297.654 170.472 297.654 167.721V157.978L293.642 156.258C293.642 155.685 293.871 153.851 294.788 151.1C295.934 147.661 297.654 145.942 299.373 145.942Z" fill="#2B3874"/>
<path d="M228.149 126.695C229.661 127.566 229.672 128.973 228.17 129.855L205.92 142.781C204.418 143.653 201.972 143.653 200.459 142.781L182.84 132.606C181.327 131.735 181.317 130.317 182.818 129.435L205.069 116.509C206.571 115.638 209.017 115.638 210.529 116.509L228.149 126.695Z" fill="#0879E2"/>
</g>
<defs>
<linearGradient id="paint0_linear_29_1446" x1="290.067" y1="46.3487" x2="289.9" y2="169.053" gradientUnits="userSpaceOnUse">
<stop offset="0.401042" stop-color="#0858F7" stop-opacity="0"/>
<stop offset="1" stop-color="#0858F7"/>
</linearGradient>
<linearGradient id="paint1_linear_29_1446" x1="161.013" y1="134.667" x2="161.013" y2="196.549" gradientUnits="userSpaceOnUse">
<stop stop-color="#036ED0"/>
<stop offset="1" stop-color="#0879E2"/>
</linearGradient>
<linearGradient id="paint2_linear_29_1446" x1="161.013" y1="152.029" x2="161.013" y2="288.474" gradientUnits="userSpaceOnUse">
<stop offset="0.401042" stop-color="#0858F7" stop-opacity="0"/>
<stop offset="1" stop-color="#0858F7"/>
</linearGradient>
<linearGradient id="paint3_linear_29_1446" x1="99.4821" y1="113.723" x2="130.261" y2="160.096" gradientUnits="userSpaceOnUse">
<stop/>
<stop offset="1" stop-opacity="0"/>
</linearGradient>
<linearGradient id="paint4_linear_29_1446" x1="126.567" y1="97.3078" x2="157.346" y2="143.681" gradientUnits="userSpaceOnUse">
<stop/>
<stop offset="1" stop-opacity="0"/>
</linearGradient>
<linearGradient id="paint5_linear_29_1446" x1="292.217" y1="219.878" x2="292.217" y2="278.969" gradientUnits="userSpaceOnUse">
<stop stop-color="#036ED0"/>
<stop offset="1" stop-color="#0879E2"/>
</linearGradient>
<linearGradient id="paint6_linear_29_1446" x1="292.217" y1="219.878" x2="292.217" y2="290.937" gradientUnits="userSpaceOnUse">
<stop offset="0.401042" stop-color="#0858F7" stop-opacity="0.33"/>
<stop offset="1" stop-color="#0858F7"/>
</linearGradient>
<linearGradient id="paint7_linear_29_1446" x1="111.76" y1="229.442" x2="111.76" y2="284.795" gradientUnits="userSpaceOnUse">
<stop stop-color="#036ED0"/>
<stop offset="1" stop-color="#0879E2"/>
</linearGradient>
<linearGradient id="paint8_linear_29_1446" x1="111.76" y1="229.442" x2="111.76" y2="289.619" gradientUnits="userSpaceOnUse">
<stop offset="0.401042" stop-color="#0858F7" stop-opacity="0.24"/>
<stop offset="1" stop-color="#0858F7"/>
</linearGradient>
<linearGradient id="paint9_linear_29_1446" x1="302.609" y1="224.656" x2="318.582" y2="248.297" gradientUnits="userSpaceOnUse">
<stop/>
<stop offset="1" stop-opacity="0"/>
</linearGradient>
<clipPath id="clip0_29_1446">
<rect width="422" height="329" fill="white" transform="translate(0 0.5)"/>
</clipPath>
</defs>
</svg>
